<?xml version="1.0" encoding="utf-8"?>
<!-- Generator: Adobe Illustrator 27.5.0, SVG Export Plug-In . SVG Version: 6.00 Build 0)  -->
<svg version="1.1" id="Layer_1" xmlns="http://www.w3.org/2000/svg" xmlns:xlink="http://www.w3.org/1999/xlink" x="0px" y="0px"
	 viewBox="0 0 500 500" fill-opacity="0.9" style="enable-background:new 0 0 500 500;" xml:space="preserve">
<rect y="0" style="fill:#53B4DA;" width="500" height="500"/>
<g>
	<path style="fill:#FFFFFF;" d="M248.785,112.525c-1.309-0.019-2.487-0.325-2.883-0.448c-0.879-0.274-1.713-0.649-2.606-1.051
		c-1.976-0.889-3.038-1.699-3.975-2.414c-1.023-0.781-1.907-1.455-3.672-1.994c-0.991-0.302-2.756-0.841-5.02-0.652
		c-1.512,0.126-2.308,0.492-3.078,0.845c-0.701,0.322-1.362,0.625-2.466,0.667c-1.835,0.069-2.862-0.657-3.854-1.36
		c-0.944-0.669-1.838-1.304-3.395-1.287c-1.279,0.012-1.979,0.441-2.947,1.034c-0.999,0.612-2.242,1.374-4.619,1.953
		c-1.147,0.279-2.575,0.627-4.415,0.515c-1.993-0.121-3.101-0.708-4.173-1.275c-0.962-0.509-1.957-1.036-3.616-1.234
		c-1.404-0.169-2.161,0.025-3.037,0.248c-0.846,0.216-1.805,0.461-3.525,0.404c-0.884-0.029-3.986-0.235-6.793-1.664
		c-3.576-1.821-7.703-6.286-7.283-11.927c0.039-0.52,0.471-5.255,4.578-8.34c0.835-0.627,4.241-3.195,8.777-2.587
		c1.697,0.227,3.012,0.824,3.84,1.283c0.189-1.406,1.046-6.485,5.44-10.055c2.876-2.337,5.843-2.87,6.429-2.967
		c4.219-0.7,7.514,0.852,8.628,1.439c0.466-1.998,1.537-5.359,4.218-8.523c5.269-6.22,14.294-8.771,22.146-6.562
		c1.705,0.48,9.086,2.797,12.648,10.019c1.339,2.715,1.71,5.254,1.813,6.923c0.482-0.693,1.268-1.618,2.473-2.308
		c3.931-2.249,9.371-0.299,12.528,2.473c2.945,2.586,5.596,7.373,4.286,10.88c-0.564,1.509-1.797,2.607-1.319,3.462
		c0.452,0.808,1.95,0.53,3.688,0.664c3.067,0.236,6.137,1.721,7.866,3.493c2.569,2.632,3.715,7.405,1.697,10.612
		c-3.208,5.099-12.797,4.476-15.659,4.163c-1.612-0.176-2.75-0.468-3.664-0.703c-1.405-0.362-2.42-0.623-4.155-0.243
		c-1.398,0.305-2.136,0.778-3.358,1.561c-0.486,0.312-1.054,0.675-1.772,1.098c-1.454,0.856-2.632,1.449-3.443,1.829
		C252.179,111.868,250.713,112.554,248.785,112.525z"/>
	<path style="fill:#E9F4F6;" d="M278.855,86.539c-2.072-0.361-4.51,0.085-4.945,0.165c-1.752,0.321-3.152,0.866-4.121,1.319
		c0.316-0.375,2.369-2.901,1.813-6.429c-0.547-3.475-3.203-5.237-3.791-5.605c-2.666-1.664-5.404-1.212-6.758-0.989
		c-3.941,0.65-6.399,3.156-7.253,4.121c-0.289-1.058-0.821-2.512-1.875-3.964c-4.892-6.739-16.032-6.571-22.221-5.112
		c-11.545,2.722-17.226,12.615-18.346,14.664c-0.916-0.472-4.011-1.919-7.776-1.009c-5.931,1.433-8.013,7.384-8.148,7.794
		c-0.877-0.331-2.12-0.753-3.645-1.119c-2.8-0.671-4.205-1.032-5.937-0.667c-3.315,0.7-5.076,3.057-5.371,3.466
		c-1.538,2.129-1.559,4.287-1.555,5.066c0.021,4.153,2.986,8.724,6.078,8.932c1.002,0.068,2.193-0.387,4.576-1.297
		c1.048-0.4,1.975-0.763,3.424-1.094c0.606-0.138,1.326-0.229,2.247-0.22c7.973,0.076,11.467,7.387,17.632,5.919
		c0.727-0.173,1.979-0.584,3.287-1.315c3.117-1.742,3.673-3.692,6.375-4.228c0.575-0.114,1.491-0.296,2.516,0.034
		c2.077,0.668,1.951,2.581,4.059,4.664c0.385,0.381,3.282,3.163,6.831,2.75c0.426-0.05,2.299-0.268,3.729-1.58
		c1.061-0.973,0.967-1.712,1.892-2.109c1.243-0.534,2.239,0.447,4.03,0.64c0.762,0.082,1.748,0.018,5.389-1.745
		c4.877-2.361,5.125-3.385,7.44-3.89c2.528-0.552,3.3,0.435,6.798,0.817c0,0,0.084,0.009,0.223,0.024
		c0.112,0.012,21.401-2.677,21.57-10.185C287.099,90.884,282.64,87.199,278.855,86.539z"/>
	<path style="fill:#CEEAF0;" d="M260.447,99.059c-4.874-2.73-7.075-7.426-7.956-9.752c-0.179,0.212-1.476,1.706-3.243,1.544
		c-1.17-0.107-1.971-0.887-2.634-1.534c-0.82-0.799-1.277-1.64-1.526-2.198c-5.919,6.687-16.525,10.613-22.541,4.496
		c-5.339,6.983-12.843,10.261-18.688,8.279c-1.266-0.429-3.204-1.36-5.119-3.583c-0.412,0.695-1.063,1.636-2.048,2.559
		c-2.82,2.648-7.153,3.869-11.433,3.071c-1.259-0.235-4.231-1.042-7.167-4.607c1.408,5.79,4.075,8.686,5.752,10.107
		c7.996,6.778,23.169,5.207,29.035,3.337c0.848-0.27,3.286-1.113,6.417-0.754c2.847,0.326,4.755,1.475,6.028,2.153
		c4.718,2.513,10.935,4.022,16.081,3.735c3.653-0.203,8.515-1.409,12.56-3.692c1.091-0.616,2.978-1.672,5.806-2.677
		c1.531-0.544,3.181-0.874,5.742-1.098c9.337-0.813,11.746,1.792,16.642-0.104c1.081-0.419,4.869-1.903,6.264-5.659
		c1.684-4.534-1.396-8.945-1.782-9.481C278.736,101.109,267.944,103.258,260.447,99.059z"/>
</g>
<g>
	<path style="fill:#FFFFFF;" d="M291.547,48.009c23.503-5.604,24.861-5.933,27.978-5.863c10.026,0.226,16.294,2.378,16.294,2.378
		c2.541,0.872,5.576,2.193,10.079,2.261c2.73,0.041,5.66,0.043,8.007-1.978c2.443-2.104,4.133-6.297,2.417-8.982
		c-1.711-2.679-5.95-2.507-6.461-2.479c-3.053,0.164-5.324,1.914-5.531,1.637c-0.193-0.258,2.219-1.247,2.969-3.332
		c0.875-2.434-0.725-5.691-2.855-7.363c-2.814-2.209-7.207-2.165-10.917,0.197c0.085-1.124,0.116-3.618-1.28-6.23
		c-2.104-3.935-5.884-5.209-6.82-5.508c-5.534-1.768-10.282,1.211-11.279,1.836c-2.881,1.807-4.395,4.208-5.115,5.377
		c-1.418,2.303-2.034,4.472-2.325,5.9c-0.963-0.53-4.287-2.2-8.43-1.31c-3.599,0.773-5.737,3.032-6.689,4.066
		c-2.269,2.465-3.094,5.111-3.411,6.429c-0.485-0.362-3.615-2.617-7.383-1.724c-0.613,0.145-2.884,0.696-4.448,2.733
		c-0.378,0.493-0.647,0.986-0.839,1.453c0,0-0.457,1.113-0.474,2.503c-0.023,1.823,1.188,5.95,3.984,8
		C282.032,50.218,285.961,49.341,291.547,48.009z"/>
	<path style="fill:#E9F4F6;" d="M326.884,23.119c3.143,0.878,5.178,2.77,6.128,3.79c0.878-0.458,2.616-1.195,4.839-1.044
		c0.879,0.06,3.689,0.251,5.427,2.446c0.24,0.303,1.115,1.437,1.296,3.058c0.189,1.7-0.527,2.662-0.094,3.034
		c0.593,0.509,2.024-1.255,4.278-1.689c2.676-0.515,6.589,0.61,7.862,3.611c0.987,2.328-0.077,4.698-0.379,5.319
		c2.314-0.596,4.718,0.137,6.174,1.868c1.342,1.594,1.966,4.141,0.939,5.834c-1.434,2.366-5.721,2.196-7.465,2.127
		c-2.915-0.116-4.027-1.015-6.358-0.26c-1.289,0.418-2.593,1.225-3.046,1.506c-1.429,0.885-2.056,1.543-2.737,2.065
		c-3.829,2.936-9.644,1.775-10.547,1.594c-1.817-0.363-1.249-0.592-3.699-1.189c-1.971-0.48-5.253-1.241-8.833-0.238
		c-1.152,0.323-1.938,0.717-2.25,0.865c-4.485,2.126-16.106,3.079-28.127-1.631c-5.602-2.195-9.82-3.422-12.729-7.577
		c-0.77-1.1-4.025-5.747-2.056-9.102c1.313-2.237,4.392-2.949,6.638-2.728c3.678,0.362,5.641,3.271,5.902,3.672
		c0.396-1.066,1.689-4.117,4.972-6.124c2.411-1.474,4.655-1.625,5.108-1.65c4.849-0.261,8.205,3.087,8.806,3.708
		c0.848-1.832,3.801-7.591,10.293-10.265C318.984,23.397,322.578,21.916,326.884,23.119z"/>
	<path style="fill:#CEEAF0;" d="M370.326,47.173c-1.128-1.006-2.679-1.317-3.811-0.971c-1.07,0.327-1.251,1.009-1.867,0.907
		c-0.984-0.164-0.762-1.898-2.232-3.597c-0.146-0.169-1.797-2.02-4.306-2.121c-0.785-0.032-1.435,0.117-1.869,0.253
		c-0.086,0.816-0.433,3.038-2.234,4.737c-2.608,2.461-6.265,1.935-6.693,1.869c-3.365-0.519-4.293-2.949-6.408-2.39
		c-1.748,0.462-1.782,2.299-3.541,2.688c-1.601,0.354-2.385-0.988-4.706-2.099c-5.228-2.503-11.632-0.663-14.249,1.347
		c-0.11,0.085-0.469,0.31-0.801,0.632c-1.18,1.143-2.194,3.018-4.523,3.52c-1.489,0.321-2.85-0.063-3.773-0.442
		c-1.216,1.564-2.755,2.812-4.596,3.567c0,0-1.705,0.697-3.772,0.789c-3.771,0.168-9.231-2.566-14.357-7.59
		c-1.044,0.155-2.782,0.266-4.777-0.331c-3.493-1.046-5.402-3.555-6.009-4.432c1.768,3.965,3.931,6.449,5.326,7.832
		c8.662,8.592,24.196,10.953,33.934,6.346c1.965-0.93,3.782-2.162,6.915-2.447c4.256-0.387,5.241,1.543,11.81,2.447
		c4.124,0.568,7.404,0.973,9.815-0.957c1.808-1.448,1.615-2.998,3.362-3.503c2.105-0.608,3.528,1.312,6.536,0.877
		c1.379-0.2,2.658-0.635,2.658-0.635c2.611-0.915,2.782-1.378,3.995-1.529c1.324-0.164,1.68,0.319,3.464,0.621
		c0.507,0.086,5.347,0.904,7.069-1.158C371.655,50.24,371.551,48.265,370.326,47.173z"/>
</g>
<g>
	<path style="fill:#FFFFFF;" d="M36.217,232.475c-1.818-1.298-5.757-4.041-5.716-8.121c0.004-0.37,0.094-3.746,2.871-6.121
		c1.963-1.679,4.18-1.99,6.114-2.235c1.848-0.234,3.409-0.097,4.484,0.073c-0.585-2.943,0.388-5.957,2.576-7.848
		c2.631-2.274,6.598-2.562,9.751-0.638c0.248-1.396,0.836-3.628,2.397-5.876c0.503-0.724,4.653-6.49,11.619-6.338
		c4.859,0.106,8.074,3.026,8.979,3.873c4.305,4.031,4.627,9.296,4.67,10.429c0.495-0.476,1.268-1.122,2.336-1.658
		c0.811-0.407,5.076-2.4,9.015,0.032c2.702,1.668,4.251,4.801,4.049,8.098c0.942-0.09,2.942-0.15,5.106,0.88
		c0.741,0.353,3.133,1.492,4.225,4.049c1.006,2.355,0.364,4.636,0.182,5.284c-2.019,7.18-16.552,14.309-27.347,10.62
		c-2.817-0.963-4.913-2.526-9.207-2.776c-4.244-0.247-6.67,1.019-10.024,1.945C53.523,238.57,43.076,237.373,36.217,232.475z"/>
	<path style="fill:#F2F7F8;" d="M104.747,230.74c1.23-0.865,4.127-2.866,4.1-5.75c-0.029-3.176-3.149-5.038-3.421-5.198
		c-2.868-1.688-6.776-1.225-9.672,1.294c-0.782-1.029-3.292-4.057-7.773-5.277c-5.568-1.517-10.078,0.874-11.011,1.395
		c-1.519-1.461-4.029-3.536-7.603-5.116c-2.071-0.916-4.272-1.889-7.294-1.937c-5.409-0.086-9.297,2.857-10.645,4.007
		c-2.712,2.313-4.066,4.976-4.717,6.577c-1.14-0.394-3.006-0.888-5.318-0.798c-1.819,0.071-4.83,0.188-6.975,2.335
		c-1.67,1.672-2.809,4.651-2.155,6.618c1.757,5.279,15.828,1.47,40.671,3.838C83.305,233.717,97.335,235.952,104.747,230.74z"/>
	<path style="fill:#CEEAF0;" d="M102.992,229.453c-4.482,0.766-7.635-2.249-7.944-2.556c-1.354,0.7-3.52,1.55-6.208,1.503
		c-7.275-0.126-11.567-6.704-12.001-7.392c-0.96,1.081-6.673,7.312-15.784,7.385c-5.715,0.046-9.901-2.354-11.638-3.494
		c-0.279,0.532-2.873,5.281-8.473,6.163c-4.619,0.727-8.027-1.69-8.681-2.173c0.503,0.754,1.231,1.754,2.216,2.837
		c0.326,0.358,3.056,3.315,6.648,5.141c3.986,2.026,7.649,1.956,12.587,1.861c8.032-0.154,13.676-2.5,15.6-3.368
		c0.944-0.426,1.716-0.822,2.263-1.115c2.946,1.484,14.227,6.788,25.296,3.253c2.918-0.932,8.134-2.597,10.788-7.513
		c0.965-1.786,1.312-3.485,1.452-4.641C108.803,225.83,106.848,228.794,102.992,229.453z"/>
</g>
<g>
	<path style="fill:#F2F7F8;" d="M414.085,61.577c4.225-2.661,8.517-5.079,12.966-7.204c-3.357-0.871-6.08-0.725-6.379-0.704
		c-0.633,0.044-8.983,0.747-13.723,7.115c-2.154,2.894-2.972,6.158-3.706,8.109C407.039,67.052,410.522,63.821,414.085,61.577z"/>
	<path style="fill:#F2F7F8;" d="M482.783,84.544c-1.911-1.514-3.928-1.867-4.785-2.007c-4.866-0.795-7.373,2.294-9.348,0.927
		c-1.478-1.023-0.276-2.859-1.759-6.2c-0.163-0.368-2.126-4.618-6.661-6.326c-3.757-1.415-7.253-0.322-8.664,0.119
		c-5.335,1.668-6.958,5.278-8.819,4.465c-1.649-0.72-0.807-3.692-2.495-8.553c-0.347-1-1.762-4.831-4.758-7.878
		c-1.825-1.856-3.909-3.084-5.926-3.895c-7.941,3.579-15.415,8.119-22.42,13.328c-7.749,5.762-16.878,2.446-25.838,3.304
		c-6.178,0.592-11.419,3.791-16.25,7.482c-2.225,1.7-3.369,3.461-5.143,5.545c-0.446,0.523-1.206,1.574-1.996,1.78
		c-1.785,0.467-4.594-0.913-6.804-2.045c0.51,1.557,1.467,2.357,1.227,2.637c-0.27,0.315-1.553-0.615-3.348-1.256
		c-2.16-0.771-3.992-0.73-5.132-0.725c-0.874,0.004-4.453,0.097-7.965,2.219c-0.075,0.045-0.186,0.113-0.328,0.202
		c-0.704,0.445-6.974,4.567-6.946,11.073c0.016,3.784,2.159,7.37,4.909,9.313c3.16,2.233,4.997,0.796,11.28,3.3
		c3.733,1.488,3.301,2.081,6.73,3.363c5.046,1.886,9.443,1.896,12.014,1.878c3.227-0.022,6.953-0.047,11.332-1.686
		c4.859-1.818,7.714-4.571,11.398-3.446c0.969,0.296,1.014,0.594,2.549,1.058c0.805,0.243,3.525,1.004,7.1,0.732
		c5.942-0.452,7.317-3.23,11.349-3.62c4.661-0.451,7.071,3.428,11.512,5.255c15.656,6.439,37.872,2.855,44.305-7.66
		c1.248-2.04,1.472-3.638,3.538-5.201c5.009-3.788,10.684,0.233,15.944-3.608c0.504-0.368,3.558-2.673,3.836-6.373
		C486.742,87.771,483.124,84.813,482.783,84.544z"/>
	<path style="fill:#FFFFFF;" d="M482.901,102.032c-4.661,2.294-13.502-1.243-15.51,0.425c-0.562,0.467-1.003,1.003-1.003,1.003
		c-0.853,1.109-0.872,2.138-3.249,4.773c-3.917,4.341-8.436,6.364-8.619,6.107c-0.268-0.375,4.888-2.87,9.26-8.794
		c1.878-2.544,8.228-11.148,5.292-20.349c-1.774-5.559-6.013-8.438-6.803-8.957c-7.41-4.861-15.641-1.599-16.213-1.36
		c-3.316,1.38-5.454,3.509-6.567,4.802c-0.679-1.793-2.444-5.711-6.537-8.827c-4.094-3.117-8.234-3.694-10.484-3.976
		c-7.727-0.969-13.749,2.165-15.481,3.096c-4.937,2.655-5.706,5.068-8.245,6.585c-0.631,0.377-1.436,0.726-2.419,0.984
		c-0.992,0.26-1.84,0.319-2.402,0.328c-2.233-4.101-6.674-5.782-9.922-4.438c-3.006,1.243-3.932,4.64-4.055,5.119
		c-0.867-0.55-2.441-1.378-4.522-1.536c-3.045-0.232-5.294,1.111-6.62,1.903c-5.379,3.212-7.333,9.073-7.886,10.982
		c-1.275-0.751-3.066-1.502-4.832-0.988c-2.178,0.634-2.513,2.665-4.154,2.804c-2.067,0.174-2.931-2.931-5.519-4.546
		c-1.873-1.168-5.063-1.814-10.84,0.497c1.614-0.955,4.571-2.384,8.293-2.421c1.163-0.012,3.007-0.11,5.132,0.725
		c0.55,0.216,0.991,0.442,1.297,0.613c-0.163-0.6-0.346-1.567-0.213-2.741c0.055-0.487,0.251-2.055,1.352-3.479
		c1.611-2.083,4.67-3.225,6.925-2.409c1.618,0.586,2.438,2.041,2.799,1.796c0.359-0.244-0.671-1.536-0.558-3.319
		c0.161-2.552,2.547-4.224,2.879-4.45c0.612-0.416,2.632-1.789,4.951-1.051c1.465,0.466,2.306,1.539,2.629,2.004
		c-0.051-0.984-0.059-3.7,1.704-6.368c0.339-0.514,2.779-4.074,7.355-4.568c3.473-0.375,6.017,1.25,6.72,1.713
		c2.11,1.392,3.184,3.193,3.646,4.1c0.242-0.516,0.905-1.737,2.299-2.442c2.374-1.202,4.73,0.055,5,0.206
		c1.779,0.994,2.422,2.67,2.585,3.144c0.351-2.072,1.44-6.751,5.314-10.866c4.318-4.586,11.26-7.593,18.171-6.19
		c6.242,1.267,9.991,5.544,11.642,7.428c3.073,3.506,4.424,6.948,4.758,7.878c0.876,2.434,1.192,4.593,1.309,6.135
		c1.693-1.298,4.928-3.384,9.463-4.078c1.915-0.293,5.34-0.774,9.247,0.783c4.128,1.644,6.357,4.591,7.328,5.909
		c2.179,2.96,2.982,5.89,3.309,7.564c1.224-0.503,3.889-1.392,7.091-0.745c3.764,0.761,8.207,3.631,9.22,8.545
		C488.086,95.297,486.295,100.362,482.901,102.032z"/>
	<path style="fill:#CEEAF0;" d="M479.417,87.3c-4.008-2.292-8.499-0.839-9.9-0.386c-4.323,1.399-4.13,3.413-7.464,3.89
		c-3.855,0.552-4.726-2.053-8.666-1.551c-3.623,0.461-3.856,2.826-7.69,3.372c-2.662,0.379-3.055-0.688-7.837-1.535
		c-1.98-0.351-6.34-1.086-11.347-0.151c-2.005,0.375-5.016,1.185-8.42,3.146c-1.129,1.811-3.656,5.973-8.747,7.865
		c-3.875,1.44-8.366,1.829-12.439,1.56c-2.874-0.19-15.032-1.742-16.312-6.416c-3.848,3.069-7.846,6.22-12.72,7.294
		c-2.423,0.534-7.601,1.609-12.879-1.078c-2.521-1.283-4.206-2.992-5.203-4.19c-1.399,0.669-3.958,1.624-7.104,1.292
		c-7.515-0.795-11.176-8.183-11.452-8.763c-0.817,1.149-2.344,3.635-2.61,7.091c-0.07,0.903-0.441,7.125,4.534,11.396
		c4.792,4.114,10.626,3.055,11.35,2.91c1.759,1.552,9.067,7.637,20.082,7.567c12.433-0.079,20.209-7.94,21.584-9.38
		c0.614,0.631,4.796,4.787,11.303,4.432c6.213-0.339,9.844-4.534,10.438-5.243c2.389,1.462,6.064,3.478,10.818,5.167
		c4.864,1.728,22.879,8.126,39.281-0.797c2.936-1.597,7.448-4.571,11.813-10.038c6.157,2.114,12.218-0.237,14.166-4.388
		c1.457-3.105,0.512-7-1.031-9.521C482.546,90.165,481.49,88.485,479.417,87.3z"/>
	<path style="fill:#FFFFFF;" d="M463.42,104.157c-0.201,0.48-0.803,1.738-3.596,4.221c-2.121,1.886-4.692,4.172-8.707,5.748
		c-2.052,0.805-10.865,4.264-15.678,0.355c-2.289-1.859-2.512-4.44-4.796-4.719c-2.057-0.251-3.118,1.729-5.183,1.238
		c-1.678-0.399-2.776-2.134-3.172-3.404c-1.073-3.442,1.739-7.545,4.983-8.901c0.583-0.244,1.734-0.766,3.238-0.571
		c1.829,0.236,3.006,1.355,3.409,1.776c0.023-0.447,0.199-3.031,2.334-4.736c2.924-2.335,6.659-0.735,6.829-0.659
		c1.231,0.552,2.032,1.369,2.476,1.905c0.387-0.829,1.863-3.729,5.151-5.04c4.072-1.624,8.982-0.036,11.536,3.49
		C464.237,97.613,464.617,101.301,463.42,104.157z"/>
	<path style="fill:#CEEAF0;" d="M463.117,104.855c0.08,0.075-2.013,3.139-5.043,5.662c-7.406,6.168-19.329,8.692-23.336,4.494
		c-1.192-1.249-1.333-2.726-3.146-3.495c-2.183-0.926-3.854,0.42-6.134-0.517c-1.499-0.617-2.421-1.875-2.976-2.878
		c0.675,0.42,1.902,1.046,3.529,1.146c3.362,0.206,5.668-2.006,6.08-2.415c1.884,1.561,5.543,4.124,10.773,5.086
		c2.499,0.46,9.348,1.319,15.161-2.459C461.014,107.538,463.04,104.783,463.117,104.855z"/>
</g>
<g>
	<path style="fill:#FFFFFF;" d="M323.31,437.51c5.561-2.176,10.662-2.189,12.994-2.174c5.006,0.031,9.082,1.033,11.809,1.923
		c1.143-2.349,3.147-5.753,6.548-8.987c1.906-1.813,9.883-9.154,21.915-8.649c12.809,0.538,20.371,9.555,21.645,11.13
		c6.205,7.673,10.426,20.822,5.25,29.207c-10.899,17.658-61.173,10.465-66.157,9.751c-2.361-0.338-8.533-1.572-16.138,0.182
		c-6.305,1.454-7.313,3.479-12.423,4.94c-10.002,2.859-24.534,0.36-27.718-7.649c-1.755-4.415-0.036-10.521,3.53-13.766
		c2.675-2.435,5.793-2.969,8.29-3.365c1.782-0.282,3.138-0.228,4.904-0.156c2.328,0.096,5.68,0.428,9.703,1.52
		C309.301,448.315,314.196,441.076,323.31,437.51z"/>
	<path style="fill:#E9F4F6;" d="M399.747,475.187c-1.982,0.096-3.992-0.037-3.992-0.037c-1.223-0.096-2.386-0.257-3.634-0.43
		c-3.593-0.695-7.152-1.386-10.711-2.077l-0.059-0.004c-5.432,1.577-9.808,1.743-12.8,1.603c-5.503-0.258-6.732-1.568-11.776-1.22
		c-4.3,0.296-3.784,1.275-11.065,2.411c-5.362,0.836-8.571,0.762-10.509,0.631c-0.939-0.064-1.782-0.17-1.884-0.183
		c-3.192-0.395-6.595-1.454-6.595-1.454c-3.194-0.989-8.738,0.493-19.634,1.374c-5.925,0.479-8.9,0.413-11.59-1.445
		c-0.622-0.43-2.355-1.661-3.224-3.941c-1.513-3.969,0.844-7.705,1.194-8.24c2.243-3.432,6.06-4.349,9.337-5.084
		c7.13-1.599,13.425,0.016,17.232,1.432c0.442-1.452,3.025-9.442,11.069-13.252c5.863-2.777,11.46-1.835,13.405-1.48
		c3.747,0.684,6.573,2.147,8.289,3.213c4.149-2.782,10.341-6.023,18.32-7.333c4.645-0.762,10.948-1.797,17.858,1.14
		c1.945,0.827,6.179,2.69,9.499,7.219c2.299,3.137,3.207,6.252,3.599,8.13c0.87-1.817,3.429-6.515,8.978-9.403
		c1.073-0.559,7.371-3.685,14.881-1.384c5.431,1.664,8.489,5.245,9.154,6.054c2.104,2.561,3.063,5.14,3.516,6.715
		c3.448-2.138,7.586-2.273,10.745-0.377c1.861,1.117,4.801,3.79,4.24,6.193c-1.01,4.319-12.972,6.18-20.4,5.675
		c-1.65-0.112-5.472-0.507-10.732,0.055c-1.045,0.112-2.529,0.302-4.298,0.64C409.801,471.924,404.932,474.936,399.747,475.187z"/>
	<path style="fill:#CEEAF0;" d="M392.132,476.426c-4.482-0.529-8.113-1.678-10.655-2.676l-0.059-0.002
		c-9.233,2.313-20.956,4.24-34.534,4.086c-6.274-0.071-12.056-0.576-17.264-1.31c-7.613,0.231-13.164,0.531-17.068,0.782
		c-4.754,0.305-9.607,0.698-13.839-2.304c-0.74-0.525-1.295-1.036-1.654-1.393c2.513-0.008,6.44-0.271,10.916-1.761
		c4.962-1.651,6.699-3.512,10.988-4.924c2.88-0.949,7.336-1.836,13.522-0.879c1.452,1.04,4.26,2.715,8.061,2.986
		c8.472,0.604,14.055-6.326,14.613-7.043c1.693,0.447,4.256,0.87,7.144,0.224c3.56-0.797,4.696-2.568,9.061-4.497
		c1.963-0.867,4.793-2.118,8.47-2.326c5.975-0.337,10.726,2.276,12.826,3.43c2.628,1.445,2.396,1.854,5.483,3.64
		c3.764,2.177,7.703,3.649,9.834,4.107c9.298,2.001,19.196-7.749,20.478-9.042c0.735,3.58,2.285,4.737,3.115,5.168
		c0.527,0.274,1.437,0.606,7.305-0.085c3.554-0.419,4.062-0.652,5.321-0.388c2.154,0.451,5.074,1.96,5.012,3.459
		c-0.112,2.707-9.941,5.243-15.951,5.03c-0.688-0.025-2.819-0.135-5.769-0.059c-1.453,0.037-3.114,0.123-4.952,0.293
		c0,0-2.269,0.21-4.305,0.524c-4.737,0.731-7.649,2.909-11.838,4.255C400.956,477.468,396.191,476.905,392.132,476.426z"/>
</g>
<g>
	<path style="fill:#F2F7F8;" d="M209.082,371.39c-0.274-0.81-0.985-2.522-2.712-3.848c-0.216-0.166-2.882-2.156-5.731-1.619
		c-2.186,0.412-2.981,0.641-2.981,0.641c-0.892,0.268-1.523,0.501-1.83,0.206c-0.304-0.293-0.067-0.899,0.001-1.388
		c0.237-1.694-1.361-3.245-2.263-4.12c-2.641-2.563-6.659-2.475-8.363-2.429c-5.522,0.151-9.022,3.245-9.403,3.593
		c-1.609,1.469-1.165,2.124-2.725,2.839c-2.396,1.098-4.414-0.005-7.425,1.281c-0.672,0.287-2.089,1.012-2.529,2.033
		c-0.327,0.761-0.065,1.382,0.147,1.882c0.195,0.462,0.35,0.827,0.016,1.147c-0.406,0.39-1.195,0.375-2.288,0.354
		c-0.63-0.012-1.344-0.026-2.145,0.033c-3.233,0.239-4.795,3.705-8.061,3.529c-0.589-0.032-1.052-0.18-1.29-0.267
		c-1.149,3.024-0.753,4.852-0.252,5.927c3.736,8.003,27.862,5.23,38.25,4.035c4.046-0.465,6.186-0.93,10.569-1.007
		c6.03-0.106,8.591-0.217,13.714-0.44c2.948-0.128,4.142-0.209,5.129-1.171c2.277-2.216,1.886-7.578-0.914-10.09
		c-1.549-1.389-3.517-1.622-3.649-1.636C210.837,370.718,209.649,371.143,209.082,371.39z"/>
	<path style="fill:#FFFFFF;" d="M203.428,374.684c1.48-0.104,4.364-0.307,5.459-2.423c1.08-2.087-0.275-4.692-1.472-6.008
		c-2.444-2.686-6.193-2.155-6.756-2.066c-2.526,0.397-4.132,1.898-4.7,2.485c0.023-0.999-0.076-2.665-0.896-4.471
		c-1.591-3.504-4.719-4.935-5.686-5.359c-4.423-1.941-8.539-0.438-9.738,0.065c-1.188,0.499-3.476,1.497-5.032,3.986
		c-1.051,1.682-1.322,3.329-1.402,4.273c-0.674-0.358-2.654-1.293-5.084-0.797c-2.746,0.56-4.991,2.728-5.904,5.612
		c-1.391-0.306-4.12-0.686-7.135,0.421c-0.945,0.347-3.021,1.139-4.566,3.157c-1.027,1.342-1.911,3.343-1.382,3.817
		c0.438,0.392,1.473-0.599,3.685-1.546c1.371-0.586,5.25-2.245,8.874-1.041c1.728,0.574,1.579,1.195,3.244,1.581
		c2.975,0.69,5.605-0.793,6.252-1.158c3.253-1.834,4.423-4.953,4.726-5.856c0.678,0.467,1.668,1.072,2.941,1.6
		c4.198,1.742,7.973,1.193,9.149,0.98c2.915-0.527,5.069-1.746,6.339-2.614c0.357,0.803,1.133,2.249,2.68,3.464
		C199.526,374.755,202.307,374.763,203.428,374.684z"/>
	<path style="fill:#CEEAF0;" d="M173.953,379.52c0.938,0.667,2.042,1.302,3.324,1.807c6.278,2.476,12.382,0.094,14.452-0.827
		c1.53,0.695,3.799,1.416,6.339,0.915c1.3-0.256,1.482-0.598,2.876-0.85c2.695-0.486,6.703,0.629,6.703,0.629
		c5.376,1.602,9.46-0.141,9.668,0.753c0.203,0.872-3.589,2.91-7.423,3.712c-4.993,1.044-9.465,0.303-12.625-0.625
		c-3.474,2.122-6.574,3.125-8.676,3.635c-4.549,1.104-6.285,0.349-7.123-0.196c-0.625-0.406-0.543-0.56-1.16-0.908
		c-1.906-1.075-3.979-0.33-6.831,0.311c0,0-2.836,0.633-5.733,0.924c-2.596,0.261-6.795,0.684-11.034-1.312
		c-1.212-0.571-3.033-1.624-4.875-3.596c0.884-1.048,2.403-2.52,4.603-3.064c4.222-1.044,7.103,2.884,11.698,1.634
		C170.876,381.716,172.841,380.391,173.953,379.52z"/>
</g>
<g>
	<path style="fill:#FFFFFF;" d="M415.377,230.087c3.298-1.646,6.704-3.258,10.218-4.823c18.31-8.153,35.972-13.446,52.162-16.862
		c0.76-1.867,2.486-6.836,0.935-12.747c-0.475-1.81-1.46-5.562-4.767-8.356c-4.814-4.067-12.153-4.091-17.517-1.384
		c-7.304,3.686-9.021,11.449-9.244,12.543c-0.815-0.85-2.482-2.348-4.998-3.033c-4.5-1.225-9.405,0.783-12.121,4.262
		c-1.857,2.378-2.296,4.936-2.42,6.272c-1.082-0.63-2.893-1.5-5.266-1.792c-0.672-0.082-6.557-0.711-10.902,3.362
		c-4.878,4.574-5.112,12.545-1.784,17.689C411.46,227.978,413.939,229.409,415.377,230.087z"/>
	<path style="fill:#E9F4F6;" d="M430.612,211.626c-0.935-0.79-2.528-1.934-4.751-2.609c-0.583-0.177-8.204-2.351-13.139,2.936
		c-3.422,3.665-3.78,9.02-2.183,12.848c2.878,6.896,11.825,8.16,13.493,8.395c8.802,1.243,11.136-4.01,22.105-3.826
		c4.258,0.071,5.219,0.885,8.154,1.627c1.957,0.495,3.378,0.68,5.647,0.883c9.436,0.843,19.069,1.704,24.171-3.938
		c3.417-3.779,3.214-8.719,3.188-9.172c-0.058-1.026-0.296-5.438-3.935-8.263c-2.217-1.721-4.577-2.032-5.604-2.105
		c0.33-1.355,0.712-3.767-0.024-6.543c-0.248-0.934-2.174-7.757-8.156-8.819c-3.551-0.631-7.282,0.99-9.77,4.038
		c-1.015-0.255-3.093-0.621-5.471,0.13c-4.393,1.389-6.148,5.434-6.416,6.078c-0.888-0.58-3.021-1.797-5.89-1.732
		c-3.591,0.082-5.969,2.124-7.067,3.05C431.877,207.21,430.904,210.453,430.612,211.626z"/>
	<path style="fill:#CEEAF0;" d="M434.406,223.13c-1.37-1.055-3.536-2.364-5.862-1.954c-3.092,0.545-3.888,3.671-7.3,5.601
		c-1.749,0.989-4.642,1.923-9.381,0.997c4.639,4.98,8.838,6.501,11.861,6.949c6.192,0.919,7.994-2.533,19.18-3.354
		c5.01-0.368,9.899-0.015,11.844,0.154c4.225,0.367,4.78,0.758,9.127,1.109c6.153,0.497,9.23,0.746,12.735-0.384
		c2.221-0.716,7.921-2.554,9.118-7.425c0.655-2.665-0.093-6.013-2.345-7.946c-3.183-2.731-9.039-2.353-13.156,1.824
		c-4.603-4.425-10.939-5.388-15.241-2.736c-3.315,2.044-4.394,5.603-4.698,6.791c-0.873-0.455-2.13-0.917-3.378-0.538
		c-2.614,0.794-2.609,4.498-4.689,5.341C440.91,228.09,438.635,227.537,434.406,223.13z"/>
	<path style="fill:#FFFFFF;" d="M476.194,210.357c1.943-0.513,2.647-5.418,1.888-8.95c-0.183-0.852-0.462-2.087-1.414-3.313
		c-2.201-2.837-5.935-2.968-6.562-2.99c-3.856-0.135-7.624,2.35-9.872,6.271c-0.527-0.229-2.05-0.809-3.928-0.376
		c-0.568,0.131-2.235,0.515-3.354,2.076c-1.416,1.976-0.821,4.26-0.729,4.589c-0.562-0.311-2.783-1.453-5.434-0.731
		c-0.284,0.077-3.956,1.138-4.64,4.304c-0.042,0.195-0.516,2.569,1.008,4.127c1.204,1.231,3.163,1.451,3.341,1.114
		c0.105-0.198-0.481-0.45-0.783-1.229c-0.5-1.292,0.305-2.691,0.44-2.925c0.765-1.329,2.065-1.858,2.533-2.041
		c3.381-1.32,6.124,1.076,7.385-0.247c0.693-0.727,0.002-1.594,0.891-3.117c0.648-1.11,1.605-1.659,2.202-2.002
		c2.011-1.155,5.542-1.914,9.013-0.676C473.362,206.09,474.191,210.886,476.194,210.357z"/>
</g>
<g>
	<path style="fill:#FFFFFF;" d="M354.956,144.93c-0.41-1.025-2.714-6.482-8.836-8.996c-7.282-2.991-13.773,0.726-14.501,1.16
		c-0.281-0.642-5.454-11.944-17.157-13.542c-9.773-1.334-19.811,4.684-23.882,14.847c6.229,7.897,20.116,22.871,41.317,26.422
		c11.92,1.996,31.524,1.283,34.96-7.135c0.96-2.35,0.895-5.843-0.84-8.484C362.772,144.263,355.381,144.888,354.956,144.93z"/>
	<path style="fill:#F2F7F8;" d="M351.107,148.383c-0.439-0.935-3.375-6.917-10.367-8.93c-5.715-1.645-10.435,0.427-11.638,0.999
		c-0.298-1.714-1.059-4.655-3.284-7.419c-4.826-5.996-12.5-6.141-14.367-6.177c-8.076-0.153-13.65,4.498-15.597,6.122
		c-2.12,1.769-3.585,3.56-4.515,4.848c-1.209-0.826-3.336-2.007-6.125-2.184c-5.327-0.338-11.328,3.094-12.616,8.266
		c-0.543,2.182-0.112,4.128,0.249,5.266c-0.888-0.897-3.107-2.884-6.34-3.236c-5.682-0.618-11.755,4.111-12.127,9.381
		c-0.158,2.23,0.681,4.79,2.398,6.515c1.722,1.731,3.833,2.189,4.487,2.334c8.184,1.816,100.141,9.098,101.646-6.532
		c0.168-1.742-0.658-5.117-3.057-7.224C356.973,147.885,352.921,148.144,351.107,148.383z"/>
	<path style="fill:#CEEAF0;" d="M351.195,160.114c-3.476-2.204-4.725-5.56-5.075-6.634c-1.198,1.644-3.159,3.751-5.881,4.137
		c-4.541,0.645-6.251-4.203-11.376-5.443c-7.352-1.777-11.214,6.413-20.91,7.329c-3.647,0.344-8.956-0.262-15.764-4.874
		c-0.395,0.255-0.83,0.437-1.317,0.495c-1.578,0.189-2.153-1.073-3.674-1.625c-5.395-1.959-13.798,8.207-20.947,10.01
		c-1.885,0.476-3.284,0.508-4.381,0.355c-3.037-0.423-4.987-2.174-5.094-2.03c-0.145,0.195,3.21,3.775,8.064,6.765
		c1.52,0.936,17.023,10.163,33.938,4.279c3.299-1.148,5.818-2.573,7.402-3.575c1.396,1.386,2.768,2.212,3.723,2.694
		c1.079,0.545,3.421,1.692,6.407,1.473c0.982-0.072,2.311-0.185,3.583-1.046c0.87-0.589,0.696-0.839,1.354-1.098
		c0.901-0.355,1.473,0.016,4.306,0.061c0.174,0.003,0.26,0.006,0.345,0.004c0.713-0.018,1.836-0.211,4.817-1.192
		c0.992-0.326,1.966-0.705,2.948-1.058c0,0,2.163-0.779,4.219-1.471c4.291-1.445,9.839,1.176,15.487,0.311
		c7.301-1.118,12.233-7.67,12.078-7.915c-0.117-0.185-1.01,0.501-2.788,1.107c0,0-1.17,0.376-2.313,0.587
		C355.267,162.696,351.195,160.114,351.195,160.114z"/>
	<path style="fill:#CEEAF0;" d="M324.287,154.235c-1.567-1.628-0.001-3.571-1.596-5.552c-1.201-1.492-3.644-2.07-5.473-1.925
		c-1.092,0.086-1.926,0.398-2.595,0.648c-0.741,0.277-1.231,0.459-1.586,0.157c-0.307-0.261-0.271-0.686-0.216-1.329
		c0.042-0.492,0.094-1.105,0.013-1.868c-0.172-1.634-1.166-3.459-1.533-3.975c-2.418-3.396-6.927-3.583-7.117-3.588
		c-4.768-0.126-7.906,3.629-8.249,4.052c-1.445,1.785-1.087,2.649-2.46,3.473c-2.109,1.266-3.806-0.261-6.453,1.21
		c-0.591,0.329-1.841,1.174-2.26,2.454c-0.312,0.954-0.109,1.764,0.053,2.415c0.15,0.602,0.27,1.078-0.031,1.468
		c-0.365,0.475-1.046,0.41-1.987,0.32c-0.543-0.052-1.158-0.111-1.851-0.081c-1.697,0.072-5.804,0.842-7.089,4.048
		c-0.634,1.581-0.504,3.502,0.366,5.021c1.101,1.923,3.165,2.618,4.608,3.019c7.804,2.166,16.979,0.719,17.481,0.636
		c13.197-2.184,13.105-4.293,18.116-3.496c4.798,0.763,6.878,3.507,11.76,2.543c1.1-0.217,3.189-0.66,4.015-2.33
		c0.859-1.736,0.066-4.221-1.42-5.504C327.132,154.621,325.616,155.616,324.287,154.235z"/>
	<path style="fill:#FFFFFF;" d="M324.287,154.235c0.13-0.475,0.824-3.184-0.789-5.83c-1.865-3.06-5.235-3.44-5.655-3.48
		c-2.572-0.246-4.464,0.932-5.021,1.309c0.071-0.795,0.206-3.415-1.52-5.844c-2.403-3.38-6.407-3.569-7.117-3.588
		c-4.22-0.11-7.057,2.82-8.249,4.052c-1.243,1.284-2.008,2.574-2.46,3.473c-0.332-0.138-3.165-1.258-5.795,0.308
		c-2.335,1.39-3.537,4.317-2.895,7.24c-0.975-0.264-3.109-0.698-5.574,0.055c-1.194,0.364-4.205,1.284-5.353,4.232
		c-0.784,2.014-0.628,4.717,1.032,6.555c2.439,2.701,6.483,1.724,7.217,1.546c5.141-1.243,7.016-6.826,7.168-7.302
		c0.889,0.562,5.015,3.037,10.471,1.993c5.267-1.007,8.153-4.601,8.816-5.473c0.861,3.211,3.484,5.58,6.597,5.987
		c3.828,0.5,6.473-2.218,6.745-2.507c0.096,0.24,1.243,2.968,3.917,3.429c0.279,0.048,2.721,0.433,3.779-1.145
		c0.921-1.373,0.28-3.466-1.03-4.55C327.421,153.744,325.753,153.566,324.287,154.235z"/>
</g>
<g>
	<path style="fill:#FFFFFF;" d="M420.202,137.873c4.777-1.371,9.4-0.197,10.745,0.144c2.79,0.706,4.94,1.809,6.355,2.668
		c0.065-0.753,0.795-7.766,7-11.476c4.81-2.876,9.765-1.885,11.761-1.307c6.25,1.811,9.146,7.014,9.852,8.282
		c5.202,9.347-0.063,19.853-1.206,21.991c-1.088,2.037-3.13,5.86-7.428,8.613c-4.355,2.789-12.243,2.509-27.842,1.833
		c-7.436-0.322-11.136-0.588-12.359-0.733c-1.882-0.224-4.884-1.301-8.742-0.733c-0.825,0.122-1.666,0.312-3.349,0.693
		c-4.34,0.983-5.415,1.494-6.631,1.704c-3.754,0.648-9.755-1.414-11.874-6.429c-1.992-4.715,0.352-9.894,3.335-12.613
		c2.372-2.162,5.054-2.692,6.327-2.926c5.572-1.024,9.997,1.532,11.289,2.344C407.89,148.79,411.401,140.4,420.202,137.873z"/>
	<path style="fill:#FFFFFF;" d="M457.208,143.788c0.732-0.889,2.563-2.965,5.632-3.918c3.236-1.005,7.34-0.303,9.711,2.158
		c0.449,0.466,1.583,1.695,1.931,3.658c0.264,1.492-0.05,2.72-0.261,3.353c0.47-0.359,1.699-1.194,3.449-1.264
		c2.467-0.099,4.11,1.398,4.505,1.77c2.103,1.979,2.086,4.636,2.076,5.077c2.466-0.56,4.966,0.307,6.388,2.185
		c1.152,1.521,1.809,3.935,0.791,5.571c-1.823,2.929-7.531,2.387-8.129,2.33c-2.104-0.2-2.56-0.801-4.088-0.434
		c-1.399,0.336-1.557,0.969-4.516,2.476c-1.954,0.995-2.67,1.119-3.262,1.132c-1.126,0.024-1.935-0.34-2.855-0.751
		c-2.111-0.943-2.18-1.758-3.946-2.282c-0.476-0.141-1.424-0.43-2.636-0.306c-0.249,0.025-0.548,0.08-0.92,0.185
		c-2.232,0.634-3.353,2.172-4.113,2.113C454.718,166.668,450.316,152.158,457.208,143.788z"/>
	<path style="fill:#E9F4F6;" d="M418.284,145.042c4.286-2.23,11.078-3.489,16.146-0.046c1.578,1.072,2.615,2.345,3.259,3.294
		c0.518-1.465,2.399-6.188,7.439-9.118c1.245-0.724,6.793-3.761,12.488-1.642c2.85,1.061,4.502,2.87,6.456,5.144
		c5.813,6.765,4.495,11.558,9.676,14.222c1.309,0.673,3.952,2.252,6.761,1.516c2.005-0.525,2.64-1.824,4.896-1.904
		c0.501-0.018,2.929-0.103,4.156,1.654c0.659,0.944,0.961,2.405,0.351,3.553c-0.364,0.686-1.068,1.286-2.953,1.787
		c-3.488,0.927-4.383-0.252-7.15,0.233c-3.54,0.621-4.268,2.282-6.334,3.078c-0.796,0.307-1.436,0.355-2.059,0.419
		c-3.883,0.4-9.579-2.156-10.338-2.503c-0.725,0.548-1.852,1.351-3.301,2.193c-10.161,5.898-21.202,4.95-30.516,4.032
		c-3.486-0.344-8.281-1.017-13.918-2.453c-1.566,0.6-3.813,1.333-6.587,1.807c-3.696,0.632-8.795,1.361-13.569-1.293
		c-4.861-2.702-6.797-7.528-7.44-9.436c0.583-1.283,2.548-5.157,6.874-6.99c5.302-2.246,11.978-0.506,16.557,4.479
		C409.395,156.059,411.093,148.784,418.284,145.042z"/>
	<path style="fill:#CEEAF0;" d="M489.562,158.161c-1.638-1.656-3.813-1.666-4.156-1.654c-2.256,0.079-2.891,1.378-4.896,1.904
		c-2.809,0.737-5.452-0.842-6.761-1.516c-4.872-2.506-4-6.896-8.715-13.037c-0.606,0.505-1.247,0.974-1.927,1.403
		c-1.36,0.859-3.455,2.223-5.73,2.396c-2.089,0.158-3.628-0.731-4.349-1.045c-6.886-3-18.472,11.886-34.177,14.303
		c-2.305,0.355-5.911,0.627-10.548-0.251c-0.54,0.806-3.427,4.934-8.9,5.904c-1.085,0.192-5.141,0.846-9.077-1.669
		c-2.782-1.778-4.08-4.229-4.578-5.321c-0.01,1.234,0.146,3.417,1.361,5.688c1.96,3.665,5.354,5.091,6.765,5.684
		c5.44,2.286,10.698,0.806,13.563,0c2.592-0.73,4.602-1.717,5.908-2.45c5.638,1.437,10.432,2.109,13.918,2.453
		c9.315,0.919,20.355,1.867,30.516-4.031c1.45-0.841,2.576-1.645,3.301-2.193c2.353,1.562,8.106,5.01,12.32,3.607
		c0.71-0.236,2.733-1.062,4.829-2.07c1.485-0.714,2.685-1.364,3.499-1.822c0.659,0.338,1.74,0.796,3.142,0.96
		c0.964,0.113,2.068,0.242,3.277-0.259c0.325-0.134,2.652-1.14,2.932-3.363C491.311,159.93,489.958,158.561,489.562,158.161z"/>
	<path style="fill:#FFFFFF;" d="M435.309,160.951c4.21,0.105,33.992,0.65,36.574-8.826c0.529-1.943,0.349-5.899-2.136-8.173
		c-2.969-2.716-7.576-1.521-8.328-1.326c-5.381,1.396-7.675,6.5-8.012,7.283c-1.844-1.23-4.205-1.372-6.148-0.364
		c-2.82,1.464-3.188,4.538-3.211,4.768c-3.212-1.309-6.485-0.975-8.213,0.864c-0.222,0.236-1.955,2.081-1.422,4.182
		C434.6,160.096,435.006,160.628,435.309,160.951z"/>
	<path style="fill:#E9F4F6;" d="M453.696,152.924c3.505,1.476,5.938,1.248,7.47,0.813c3.828-1.089,5.376-4.424,8.137-4.031
		c1.614,0.23,2.74,1.606,3.379,2.574c0.5-0.257,1.281-0.567,2.36-0.656c0.018-0.002,0.075-0.006,0.13-0.009
		c2.068-0.121,3.464,1.148,3.464,1.148c1.499,1.363,1.439,3.289,1.426,3.555c0.595-0.158,2-0.439,3.562,0.146
		c0.526,0.197,1.436,0.538,2.092,1.448c0.721,1.001,1.083,2.618,0.435,3.752c-1.182,2.068-5.287,1.772-6.881,1.657
		c-0.049-0.003-0.088-0.006-0.114-0.009c-1.811-0.141-2.203-0.567-3.518-0.307c-1.204,0.238-1.34,0.686-3.886,1.753
		c-1.681,0.704-2.298,0.792-2.807,0.801c-0.969,0.017-1.665-0.241-2.457-0.531c-1.817-0.667-1.876-1.244-3.395-1.615
		c-0.409-0.1-1.225-0.304-2.268-0.216c-1.325,0.112-1.486,0.559-2.493,0.606c-1.568,0.072-1.758-0.986-3.231-0.954
		c-1.198,0.026-1.336,0.721-3.426,1.177c-0.521,0.114-1.152,0.251-1.966,0.221c-1.68-0.063-1.889-0.761-3.472-0.899
		c-0.236-0.021-0.422-0.025-0.593-0.016c-1.257,0.06-2.197,0.264-2.359,0.304c-1.901,0.466-8.176-1.76-7.975-2.684
		c0.137-0.628,3.027,0.398,5.836-1.269c1.655-0.982,2.629-2.512,3.224-3.827c0.251,0.195,2.389,1.803,5.143,1.091
		C452.632,156.141,453.638,153.109,453.696,152.924z"/>
</g>
<g>
	<g>
		<path style="fill:#F2F7F8;" d="M220.444,318.486c-6.819,4.891-14.085-0.351-20.579,4.473c-2.679,1.991-2.985,4.047-4.615,6.661
			c-8.401,13.475-37.06,17.848-57.157,9.382c-5.701-2.402-8.763-7.425-14.772-6.895c-5.399,0.476-7.058,2.816-14.659,4.539
			c-5.979,1.355-10.652,0.903-17.135,0.219c-10.945-1.155-14.164-3.447-21.873-4.914c-21.741-4.14-31.598,7.34-41.118-0.046
			c-4.429-3.436-6.763-9.386-6.426-14.69c0.552-8.703,8.163-13.624,9.069-14.188c4.345-2.701,8.762-2.944,10.709-3.028
			c7.82-0.34,10.253,3.301,14.205,1.75c3.855-1.513,3.118-5.597,7.176-13.155c1.463-2.726,8.874-15.824,21.088-18.173
			c2.56-0.492,6.373-1.212,9.876,0.714c4.618,2.54,5.793,7.383,7.9,6.916c1.283-0.284,1.053-2.035,2.988-3.121
			c1.98-1.112,4.669-0.642,6.439,0.32c3.782,2.056,3.598,6.488,5.234,6.568c2.052,0.1,2.266-6.876,6.631-12.638
			c6.175-8.151,16.94-8.966,17.755-9.015c0.697-0.043,11.592-0.546,19.032,7.147c3.827,3.957,5.607,8.909,6.044,10.2
			c2.122,6.28,1.005,10.099,3.121,11.045c2.389,1.068,4.519-3.564,11.41-5.655c1.823-0.553,6.338-1.923,11.162-0.058
			c5.823,2.251,8.305,7.748,8.511,8.223c1.873,4.319,0.305,6.671,2.198,8.005c2.529,1.782,5.792-2.169,12.053-1.092
			c1.104,0.19,3.697,0.667,6.143,2.637c0.436,0.351,5.065,4.201,4.604,9.702C225.056,315.082,221.097,318.018,220.444,318.486z"/>
		<path style="fill:#FFFFFF;" d="M160.878,343.452c-8.071,0-16.036-1.488-22.827-4.349c-2.123-0.895-3.867-2.14-5.554-3.345
			c-2.789-1.991-5.423-3.871-9.166-3.542c-2.812,0.248-4.645,1.022-6.768,1.919c-1.992,0.842-4.25,1.796-7.877,2.618
			c-6.119,1.387-10.996,0.872-17.171,0.221c-6.651-0.702-10.321-1.813-13.87-2.888c-2.455-0.743-4.773-1.445-8.01-2.028
			c-10.077-1.813-17.23-0.245-22.979,1.014c-6.465,1.416-8.787,1.447-12.128,0.762c-1.546-0.317-3.579-0.734-5.674-2.088
			c-4.788-3.095-7.06-9.254-6.854-14.534c0.32-8.181,6.408-13.281,8.545-14.66c1.073-0.692,7.693-5.887,16.706-4.887
			c2.458,0.273,4.427,0.926,5.731,1.452c-0.435-2.295-2.335-13.626,4.925-23.239c7.387-9.781,21.77-14.489,32.897-9.241
			c6.543,3.086,9.925,8.653,11.302,11.306c0.122-0.416,0.904-2.923,3.496-4.18c3.046-1.477,5.916,0.069,6.219,0.239
			c3.275,1.839,3.506,5.575,3.517,5.807c4.581-11.572,14.763-19.385,25.832-19.756c10.406-0.349,17.67,6.011,19.038,7.256
			c9.054,8.238,9.213,19.338,9.209,21.145c0.828-1.33,3.966-6.015,10.231-8.047c1.536-0.498,7.11-2.209,13.184,0.613
			c0.953,0.443,6.431,3.096,8.891,9.504c1.381,3.598,1.204,6.799,0.994,8.455c1.116-0.692,2.862-1.584,5.138-2.017
			c0.681-0.129,7.673-1.338,13.063,3.567c1.152,1.048,5.079,4.601,4.644,9.797c-0.382,4.562-3.967,7.466-5.056,8.248
			c-3.452,2.476-7.044,2.377-10.517,2.281c-3.526-0.097-6.856-0.189-10.06,2.191c-1.848,1.373-2.551,2.771-3.364,4.39
			c-0.358,0.711-0.727,1.447-1.223,2.242c-3.997,6.411-12.842,11.138-24.268,12.969
			C167.712,343.187,164.285,343.452,160.878,343.452z M124.187,331.96c2.048,0.069,4.491,0.804,8.437,3.621
			c1.677,1.198,3.412,2.436,5.512,3.321c9.621,4.053,21.614,5.34,32.905,3.53c11.364-1.822,20.154-6.512,24.117-12.869
			c0.49-0.787,0.858-1.518,1.213-2.224c0.826-1.644,1.54-3.063,3.429-4.467c3.265-2.426,6.789-2.329,10.197-2.234
			c3.437,0.095,6.992,0.193,10.384-2.24l0.064,0.089l-0.064-0.089c1.07-0.768,4.592-3.62,4.966-8.088
			c0.453-5.399-4.049-9.193-4.564-9.608c-2.472-1.992-5.102-2.444-6.093-2.615c-3.168-0.545-5.724,0.282-7.633,0.893
			c-4.984,1.595-5.735,3.807-7.45,3.248c-2.825-0.92-1.085-6.964-5.239-11.395c-2.866-3.057-6.848-3.542-7.971-3.679
			c-6.089-0.742-12.412,2.791-16.249,8.891c-4.954-10.54-9.858-13.293-13.49-13.797c-8.705-1.206-14.243,9.937-26.061,9.811
			c-5.518-0.059-9.996-2.549-12.877-4.599c-0.109,0.514-1.097,4.855-4.906,6.439c-0.7,0.291-3.482,1.513-6.132,0
			c-2.157-1.231-2.802-3.456-2.938-3.974c-0.178,1.089-2.747,15.259-15.894,21.069c-10.728,4.741-20.699,0.468-22.548-0.37
			c-5.591-2.534-9.03-6.336-10.719-8.502c-1.212,2.086-3.205,4.675-6.284,5.544c-3.563,1.006-5.634-1.123-9.611-1.479
			c-5.614-0.501-13.311,2.688-15.706,8.865c-2.704,6.973,2.424,14.995,7.971,18.396c3.227,1.979,6.198,2.063,11.651,2.146
			c9.982,0.152,33.896-2.109,35.105-1.718c0.002,0.001,0.055,0.018,0.127,0.041c0.261,0.084,0.85,0.27,1.601,0.491
			c1.071,0.314,2.491,0.702,4.178,1.082c2.154,0.485,4.684,0.924,7.924,1.266c6.155,0.649,11.016,1.163,17.099-0.216
			c1.48-0.335,2.73-0.693,3.828-1.056c1.89-0.625,2.991-1.137,4.012-1.55C119.098,332.875,121.576,331.872,124.187,331.96z"/>
	</g>
	<path style="fill:#CEEAF0;" d="M132.742,323.945c-7.02,0.921-13.106-1.635-16.863-3.679c-2.943,3.498-7.638,7.935-13.184,7.665
		c-4.884-0.237-5.48-3.884-10.731-5.519c-8.283-2.579-12.305,4.782-29.177,7.64c-6.736,1.141-10.477,1.774-15.036,0.142
		c-5.781-2.07-7.797-5.971-13.09-6.392c-4.17-0.332-7.757,1.693-10.132,3.451c0.984,1.678,2.627,4.081,5.21,6.378
		c6.407,5.7,13.899,6.574,18.787,7.145c7.891,0.921,14.086-0.393,20.751-1.806c4.984-1.057,9.063-2.346,11.957-3.373
		c2.184,0.794,5.313,1.863,9.126,2.934c9.842,2.762,18.457,3.906,30.118,4.731c8.719,0.617,23.077,1.335,41.557,0.493
		c12.504-0.569,20.921-1.581,28.856-7.361c3.018-2.199,5.158-4.498,6.53-6.158c2.141,0.751,6.684,1.982,11.729,0.398
		c6.798-2.135,12.645-8.796,11.293-12.147c-0.446-1.105-1.91-2.433-11.973-2.82c-15.818-0.608-19.589,2.387-29.933,1.581
		c-12.926-1.008-12.39-6.101-20.961-4.953C146.521,313.775,143.828,322.491,132.742,323.945z"/>
	<path style="fill:#FFFFFF;" d="M242.167,319.516c-1.073-1.12-2.768-2.647-5.162-3.948c-1.264-0.687-3.461-1.857-6.325-2.207
		c-4.751-0.58-8.572,1.437-10.167,2.416c-1.17-1.252-8.079-8.401-19.242-8.501c-10.222-0.091-16.895,5.792-18.331,7.12
		c-1.188-0.625-3.544-1.638-6.544-1.435c-6.2,0.42-9.641,5.662-10.059,6.322c-0.942-0.558-2.416-1.33-4.332-1.93
		c-1.942-0.607-5.832-1.823-9.937-0.348c-1.413,0.508-4.481,1.61-5.19,4.329c-0.024,0.093-0.576,2.339,0.679,3.906
		c2.164,2.702,8.011,1.023,9.434,1.025c13.612,0.018,94.247,8.596,96.603-2.451c0.266-1.246-0.38-3.183-1.585-4.298
		C249.277,316.989,243.865,318.867,242.167,319.516z"/>
	<path style="fill:#CEEAF0;" d="M241.392,322.212c-0.957-1.016-2.519-2.41-4.762-3.355c-3.749-1.579-7.267-1.002-9.024-0.692
		c-16.077,2.843-17.353,5.159-23.285,4.763c-8.838-0.591-10.967-5.614-21.036-5.821c-3.244-0.067-6.562,0.176-10.055,1.455
		c-3.051,1.117-5.314,2.644-6.766,3.785c-2.348-0.937-8.476-2.997-14.621-0.339c-1.222,0.529-4.41,1.907-4.286,3.232
		c0.298,3.165,19.098,1.625,46.724,4.327c0,0,41.376,4.047,55.65-2.501c0.99-0.454,3.728-1.71,3.663-3.253
		c-0.048-1.126-1.569-1.901-2.175-2.209C247.647,319.685,243.147,321.423,241.392,322.212z"/>
</g>
<g>
	<g>
		<path style="fill:#F2F7F8;" d="M433.173,376.001c-6.297,4.517-13.008-0.324-19.005,4.131c-2.474,1.838-2.757,3.737-4.262,6.152
			c-7.758,12.445-34.226,16.483-52.786,8.665c-5.265-2.218-8.093-6.857-13.643-6.368c-4.801,0.423-6.464,3.714-13.538,4.192
			c-4.256,0.288-7.484-0.645-8.439-0.942c-1.34-0.417-2.283-0.854-3.022-1.285c-3.175-1.848-3.279-2.406-4.425-2.587
			c-2.83-0.448-3.689,4.176-9.171,6.572c-1.029,0.45-4.328,1.838-7.373,0.495c-0.42-0.185-2.475-1.092-2.728-2.711
			c-0.246-1.576,1.357-2.913,1.092-3.186c-0.303-0.312-2.46,1.375-3.48,2.101c-4.447,3.164-11.857,5.539-15.284,2.837
			c-1.218-0.961-2.223-2.791-2.132-4.53c0.101-1.925,1.494-2.892,1.111-3.452c-0.582-0.851-3.98,1.114-8.456,2.092
			c-2.894,0.632-6.639,1.451-9.954,0.132c-4.789-1.906-7.84-7.937-7.674-13.48c0.249-8.294,7.688-12.7,8.768-13.34
			c4.199-2.489,8.458-2.564,9.498-2.56c1.356,0.006,3.537-0.025,6.098,0.914c2.128,0.781,3.646,1.901,3.97,1.528
			c0.312-0.358-1.051-1.444-1.577-3.625c-0.154-0.638-0.635-2.572,0.28-4.138c1.5-2.568,5.424-2.492,5.905-2.478
			c3.289,0.094,5.267,2.141,5.951,1.435c0.523-0.539-0.667-1.695-0.631-3.954c0.006-0.359,0.078-2.736,1.747-4.43
			c1.667-1.691,4.23-2.078,6.168-1.657c2.625,0.57,3.465,2.479,4.564,2.032c1.158-0.471,0.543-2.718,1.492-5.85
			c0.283-0.936,1.575-5.398,5.253-7.095c4.221-1.948,8.504,0.321,9.12,0.66c4.265,2.346,5.35,6.818,7.296,6.387
			c1.185-0.263,0.973-1.879,2.76-2.883c1.829-1.027,4.312-0.593,5.946,0.295c3.493,1.899,3.323,5.992,4.833,6.066
			c1.895,0.092,2.093-6.351,6.124-11.672c5.703-7.527,15.645-8.28,16.397-8.326c0.643-0.039,10.706-0.504,17.576,6.6
			c3.534,3.655,5.178,8.228,5.581,9.42c1.96,5.799,0.928,9.327,2.882,10.2c2.206,0.986,4.174-3.292,10.537-5.222
			c1.683-0.511,5.853-1.776,10.309-0.054c5.378,2.078,7.67,7.155,7.861,7.594c1.73,3.989,0.281,6.161,2.03,7.393
			c2.336,1.646,5.349-2.003,11.131-1.008c1.019,0.175,3.414,0.616,5.673,2.436c0.402,0.324,4.678,3.88,4.252,8.96
			C437.433,372.857,433.776,375.569,433.173,376.001z"/>
		<path style="fill:#FFFFFF;" d="M378.163,399.058c-7.454,0-14.81-1.374-21.082-4.016c-1.961-0.826-3.572-1.976-5.13-3.089
			c-2.576-1.839-5.008-3.575-8.465-3.271c-2.12,0.187-3.65,0.952-5.27,1.761c-2.029,1.014-4.329,2.164-8.27,2.43
			c-3.887,0.263-6.979-0.48-8.476-0.947c-1.186-0.369-2.181-0.792-3.043-1.294c-1.396-0.812-2.216-1.388-2.759-1.768
			c-0.715-0.501-1.01-0.709-1.631-0.807c-1.349-0.212-2.239,0.78-3.47,2.154c-1.275,1.423-2.861,3.194-5.644,4.41
			c-2.858,1.249-5.366,1.416-7.454,0.495c-1.629-0.718-2.619-1.708-2.787-2.788c-0.16-1.028,0.429-1.946,0.819-2.553
			c0.14-0.217,0.331-0.515,0.3-0.579c-0.191-0.197-2.121,1.217-2.755,1.682c-0.22,0.161-0.423,0.31-0.594,0.431
			c-4.803,3.418-12.059,5.473-15.405,2.834c-1.116-0.88-2.271-2.699-2.17-4.614c0.056-1.071,0.504-1.853,0.831-2.425
			c0.253-0.443,0.436-0.762,0.297-0.965c-0.291-0.425-1.637,0.044-3.341,0.637c-1.38,0.48-3.098,1.078-5.009,1.496
			c-2.972,0.649-6.669,1.457-10.013,0.127c-4.589-1.826-7.915-7.662-7.738-13.576c0.239-7.975,7.121-12.419,8.816-13.423
			c8.975-5.315,18.779-0.489,19.543-0.097c-1.885-2.273-2.422-5.297-1.308-7.747c1.513-3.329,5.799-5.001,8.562-3.757
			c0.878,0.396,1.475,1.029,1.859,1.549c-0.225-1.126-0.897-5.2,1.549-8.674c0.555-0.788,1.606-2.238,3.563-2.943
			c0.146-0.053,3.62-1.239,6.351,0.929c1.073,0.852,1.608,1.885,1.859,2.478c-0.875-5.679,2.128-11.176,7.125-13.322
			c5.193-2.229,11.368-0.335,14.251,3.718c1.289,1.812,1.684,3.731,1.812,5.023c0.163-0.662,0.641-2.211,2.061-3.474
			c1.756-1.563,4.277-2.087,6.506-1.394c2.695,0.838,3.871,3.116,4.182,3.718c1.028,1.99,0.908,3.871,0.817,4.627
			c0.122-1.719,0.509-4.309,1.816-7.106c3.672-7.858,12.377-12.569,20.694-12.892c1.2-0.047,10.952-0.301,17.655,6.631
			c3.341,3.456,5.032,7.765,5.604,9.458c0.88,2.604,1.154,4.711,1.374,6.404c0.265,2.043,0.426,3.276,1.454,3.736
			c1.024,0.458,2.012-0.292,3.506-1.428c1.558-1.185,3.692-2.807,6.961-3.798c1.762-0.534,5.886-1.786,10.374-0.052
			c5.371,2.076,7.672,7.084,7.917,7.648c0.847,1.953,0.937,3.453,1.01,4.659c0.076,1.256,0.126,2.086,0.986,2.692
			c1.073,0.756,2.276,0.357,3.942-0.194c1.826-0.604,4.099-1.356,7.148-0.832c0.929,0.16,3.395,0.584,5.719,2.457
			c0.484,0.39,4.716,3.957,4.289,9.047c-0.353,4.213-3.664,6.895-4.67,7.617c-3.188,2.287-6.505,2.195-9.713,2.106
			c-3.256-0.09-6.332-0.175-9.291,2.024c-1.707,1.268-2.356,2.559-3.107,4.054c-0.33,0.657-0.672,1.336-1.129,2.07
			c-3.691,5.92-11.86,10.286-22.412,11.977C384.474,398.813,381.309,399.058,378.163,399.058z M344.277,388.445
			c0.905-0.003,2.547-0.4,7.792,3.344c1.549,1.106,3.151,2.25,5.091,3.067c8.885,3.743,19.961,4.931,30.388,3.26
			c10.495-1.682,18.612-6.014,22.273-11.885c0.453-0.726,0.792-1.401,1.12-2.054c0.763-1.518,1.422-2.829,3.167-4.125
			c3.015-2.24,6.269-2.151,9.417-2.064c3.175,0.088,6.457,0.178,9.59-2.069l0.059,0.082l-0.059-0.082
			c0.988-0.709,4.241-3.343,4.586-7.47c0.418-4.986-3.739-8.49-4.215-8.873c-2.283-1.84-4.712-2.258-5.627-2.415
			c-2.999-0.516-5.245,0.227-7.05,0.824c-1.657,0.549-2.966,0.982-4.122,0.167c-0.939-0.662-0.995-1.578-1.071-2.845
			c-0.072-1.19-0.161-2.671-0.993-4.591c-0.241-0.556-2.509-5.493-7.804-7.54c-4.423-1.709-8.501-0.472-10.243,0.056
			c-3.234,0.981-5.351,2.591-6.897,3.766c-1.495,1.137-2.576,1.959-3.71,1.452c-1.132-0.506-1.307-1.854-1.572-3.894
			c-0.219-1.684-0.491-3.781-1.365-6.366c-1.562-4.621-4.38-8.234-5.558-9.382c-6.83-6.655-16.8-5.387-17.75-5.252
			c-0.813,0.116-10.216,1.586-14.483,8.449c-0.83,1.334-2.456,4.466-3.889,7.778c-1.595,3.686-2.36,6.235-3.353,6.169
			c-0.98-0.065-0.805-2.585-3.219-5.096c-0.583-0.607-1.823-1.897-3.621-2.28c-3.48-0.741-6.51,2.459-6.839,2.816
			c-0.789-1.024-2.087-2.477-4.023-3.755c-1.537-1.014-6.75-4.455-11.667-2.28c-3.574,1.581-4.956,5.227-5.364,6.303
			c-1.184,3.122-0.786,5.894-0.537,7.108c-0.212-0.343-2.034-3.187-5.437-3.461c-0.802-0.065-2.605-0.06-4.182,1.084
			c-2.019,1.465-2.473,3.934-2.852,5.997c-0.201,1.091-0.245,2.021-0.246,2.677c-0.64-0.377-1.654-0.866-2.973-1.068
			c-0.922-0.141-3.727-0.57-5.498,1.207c-1.815,1.82-1.288,4.777-1.207,5.23c0.545,3.057,2.908,4.634,2.548,5.096
			c-0.396,0.509-3.167-1.527-6.169-2.682c-4.708-1.811-10.86-1.792-15.959,0.805c-1.701,0.866-7.971,4.059-9.119,10.863
			c-0.908,5.379,1.605,11.723,6.084,13.695c4.053,1.785,9.624-0.077,9.894-0.136c1.901-0.415,3.612-1.011,4.987-1.49
			c1.994-0.694,3.197-1.113,3.574-0.56c0.211,0.308,0.001,0.673-0.289,1.18c-0.317,0.553-0.751,1.312-0.805,2.335
			c-0.097,1.844,1.017,3.597,2.093,4.445c3.273,2.581,10.419,0.535,15.163-2.84c0.17-0.121,0.372-0.269,0.591-0.43
			c1.833-1.343,2.753-1.934,3.02-1.659c0.154,0.159-0.008,0.411-0.276,0.828c-0.374,0.582-0.938,1.461-0.789,2.413
			c0.158,1.01,1.105,1.945,2.669,2.635c2.035,0.897,4.488,0.73,7.292-0.495c2.742-1.199,4.313-2.952,5.575-4.36
			c1.226-1.368,2.194-2.448,3.652-2.219c0.667,0.105,0.995,0.336,1.715,0.841c0.572,0.401,1.356,0.951,2.745,1.759
			c0.848,0.493,1.83,0.911,3.001,1.275c1.484,0.462,4.548,1.199,8.403,0.938c1.619-0.109,2.958-0.37,4.116-0.709
			c1.741-0.51,2.435-0.998,4.078-1.701C340.668,389.175,342.359,388.452,344.277,388.445z"/>
	</g>
	<g>
		<path style="fill:#CEEAF0;" d="M301.288,377.425c-5.748,1.852-9.603-4.134-20.496-6.575c-8.805-1.973-14.736,0.045-16.019,0.508
			c-2.572,0.93-8.767,3.169-9.722,8.266c-0.432,2.307,0.26,4.974,1.884,6.747c3.658,3.996,11.313,2.219,12.226,1.995
			c2.798-0.686,4.772-1.947,5.412-1.203c0.664,0.772-1.16,2.479-1.038,4.962c0.132,2.679,2.453,4.587,3.563,5.502
			c5.356,4.412,16.685,4.31,22.776,4.13c16.706-0.493,25.468-0.85,36.095-5.989c3.352-1.621,5.969-3.272,7.707-4.457
			c3.958,2.323,8.678,4.556,14.16,6.236c4.472,1.371,21.723,6.659,39.158-0.254c7.328-2.906,5.919-4.49,13.053-6.838
			c9.446-3.108,15.813-1.613,23.137-7.008c1.999-1.473,3.553-3.078,4.539-5.285c0.128-0.287,2.661-6.206-0.562-11.001
			c-2.69-4.002-7.645-4.623-8.383-4.704c-8.893-0.98-12.686,8.353-22.63,8.899c-4.439,0.244-8.181-1.368-10.679-2.797
			c-1.914,2.097-16.873,17.979-37.529,15.485c-7.441-0.898-13.191-3.888-16.885-6.331c-1.953,1.077-4.794,2.455-8.391,3.56
			c-3.415,1.049-7.346,2.257-11.188,1.78c-8.13-1.009-13.043-9.213-14.172-11.211C306.303,373.662,304.421,376.416,301.288,377.425z
			"/>
	</g>
	<path style="fill:#FFFFFF;" d="M489.206,374.339c-10.586,8.951-31.226,6.246-45.822-0.121c-4.462-1.946-7.838-4.007-9.787-5.281
		c1.7,0.134,2.884-0.068,3.256-0.759c0.96-1.783-3.384-6.999-8.643-8.959c-4.947-1.843-9.582-0.386-11.421,0.314
		c-0.403-1.744-1.585-5.762-5.193-9.221c-0.786-0.753-5.717-5.325-12.59-5.056c-3.532,0.138-6.167,1.511-10.066,3.542
		c-2.696,1.404-4.768,2.856-6.151,3.914c-2.15-1.427-5.762-3.446-10.625-4.474c-2.33-0.492-9.957-1.992-18.124,1.751
		c-1.814,0.832-7.452,3.678-11.543,9.725c-3.818,5.643-3.594,10.15-6.229,10.589c-2.702,0.45-3.568-4.182-8.952-6.216
		c-5.439-2.054-10.874,0.286-11.875,0.718c-6.549,2.82-8.703,8.764-9.4,8.358c-0.893-0.52,1.01-11.244,9.474-15.607
		c0.733-0.378,7.466-3.716,14.06-0.634c1.81,0.846,3.115,1.945,3.965,2.79c-0.364-0.732-0.874-2.034-0.741-3.631
		c0.263-3.175,2.941-6.017,6.185-6.616c3.029-0.559,5.411,1.049,5.951,1.435c-0.384-0.813-0.907-2.259-0.631-3.954
		c0.571-3.506,4.273-6.307,7.915-6.087c2.256,0.137,3.862,1.395,4.564,2.032c0-1.289,0.184-3.555,1.492-5.85
		c2.477-4.348,7.9-6.898,13.061-5.987c5.301,0.936,8.092,5.13,8.608,5.938c0.293-0.611,1.094-2.057,2.759-2.882
		c2.56-1.269,5.149-0.073,5.946,0.295c3.604,1.664,4.666,5.435,4.833,6.066c0.589-2.459,2.084-7.231,6.124-11.672
		c1.687-1.855,7.242-7.768,16.397-8.326c0.643-0.039,10.706-0.505,17.576,6.6c2.832,2.929,4.218,6.197,5.581,9.42
		c1.699,4.017,2.487,7.61,2.882,10.2c1.061-1.486,3.384-4.31,7.331-6.105c0.549-0.25,9.248-4.053,15.765,0.508
		c3.045,2.131,4.434,5.264,5.61,7.914c1.309,2.95,1.813,5.6,2.03,7.393c1.807-0.727,5.262-1.818,9.539-1.272
		c1.926,0.246,4.697,0.6,7.265,2.7c0.257,0.21,4.673,3.931,4.252,8.96C493.514,370.625,490.601,373.159,489.206,374.339z"/>
	<path style="fill:#CEEAF0;" d="M422.272,368.812c4.922-1.648,9.893-0.272,11.325,0.125c5.982,1.656,9.754,5.649,11.12,4.448
		c0.557-0.49,0.133-1.33,0.221-3.123c0,0,0.197-3.984,3.07-7.383c3.131-3.703,9.021-4.984,13.844-3.462
		c5.427,1.712,7.844,6.451,8.6,7.932c4.646,9.107-0.918,18.491-1.271,19.063c-0.626,1.015-2.979,4.62-7.784,7.308
		c-2.15,1.203-5.507,2.622-29.389,1.747c-6.957-0.255-10.436-0.382-13.027-0.635c-4.337-0.424-5.945-0.8-9.214-0.635
		c-5.195,0.262-5.773,1.446-9.69,1.589c-1.418,0.052-10.934,0.385-13.344-5.084c-1.582-3.588,0.434-8.451,3.515-10.934
		c2.276-1.834,4.817-2.115,6.85-2.313c6.297-0.613,7.586,2.365,11.716,1.808C414.909,378.441,414.717,371.342,422.272,368.812z"/>
	<path style="fill:#FFFFFF;" d="M398.954,395.869c-3.707,0-10.304-0.66-12.28-5.142c-1.64-3.72,0.557-8.611,3.533-11.01
		c2.337-1.884,4.965-2.14,6.885-2.327c3.435-0.334,5.389,0.396,7.114,1.041c1.464,0.547,2.729,1.02,4.6,0.768
		c2.998-0.404,4.436-2.307,6.101-4.51c1.65-2.183,3.52-4.657,7.344-5.938c3.279-1.098,7.102-1.056,11.363,0.124
		c2.902,0.804,5.243,2.132,7.124,3.199c1.896,1.076,3.266,1.853,3.937,1.263c0.322-0.283,0.29-0.707,0.239-1.409
		c-0.032-0.439-0.073-0.986-0.039-1.67c0.002-0.04,0.231-4.045,3.085-7.421c3.044-3.601,8.895-5.065,13.912-3.482
		c5.452,1.72,7.85,6.42,8.638,7.964c4.712,9.235-1.027,18.727-1.274,19.126c-1.043,1.69-3.444,4.889-7.807,7.33
		c-2.505,1.401-6.64,2.59-29.423,1.756c-6.953-0.255-10.439-0.382-13.031-0.636c-1.149-0.112-2.107-0.221-2.953-0.318
		c-2.32-0.264-3.853-0.438-6.251-0.318c-2.734,0.138-4.215,0.54-5.522,0.894c-1.189,0.322-2.311,0.627-4.169,0.695
		C399.748,395.86,399.369,395.869,398.954,395.869z M398.747,377.435c-0.508,0-1.053,0.026-1.642,0.083
		c-1.903,0.185-4.509,0.439-6.816,2.299c-2.939,2.369-5.112,7.194-3.496,10.858c2.165,4.912,10.011,5.165,13.283,5.045
		c1.843-0.067,2.959-0.37,4.141-0.69c1.313-0.356,2.801-0.76,5.549-0.898c2.409-0.122,3.946,0.053,6.272,0.318
		c0.845,0.096,1.803,0.205,2.951,0.317c2.587,0.253,6.072,0.381,13.014,0.635c21.213,0.777,26.271-0.293,28.467-1.277
		c0.345-0.155,0.567-0.276,0.897-0.462c6.548-3.703,10.83-13.115,8.089-21.051c-0.16-0.464-3.191-8.85-10.042-9.63
		c-3.128-0.356-6.521,0.934-8.725,3.128c-3.78,3.763-2.616,8.743-5.432,9.712c-1.517,0.522-2.566-0.678-5.597-2.222
		c-1.366-0.696-11.595-5.763-18.602-2.305c-1.311,0.647-3.435,2.05-5.35,4.033c-2.014,2.086-2.804,3.787-5.021,4.362
		c-1.425,0.37-2.872,0.128-3.128,0.082c-0.945-0.167-1.008-0.367-3.398-1.221c-2.024-0.724-2.771-0.861-3.113-0.922
		C400.368,377.509,399.612,377.435,398.747,377.435z"/>
</g>
<g>
	<g>
		<path style="fill:#F2F7F8;" d="M457.404,274.807c-3.767,0.096-6.808,0.82-8.799,1.429c0.046-0.921,0.211-6.382-4.747-10.658
			c-4.856-4.189-11.065-4.169-12.75-4.102c-2.608,0.104-4.925,1.002-9.562,2.735c-3.518,1.314-6.355,2.631-8.328,3.611
			c-1.823-2.27-4.646-5.381-8.642-8.426c-3.184-2.426-5.599-4.266-9.327-5.439c-6.06-1.907-12.343-0.963-15.937,1.026
			c-3.387,1.875-5.367,4.814-5.578,5.128c-0.731,1.084-1.191,1.932-1.504,2.582c-0.731,1.517-0.809,1.72-0.889,1.763
			c-0.52,0.081-1.403-3.56-1.678-4.645c-1.308-5.158-3.36-9.623-3.841-10.626c-2.164-4.513-5.264-7.239-7.214-8.954
			c-11.78-10.357-29.745-7.392-31.016-7.158c-5.653,1.044-19.52,3.603-25.022,15.698c-4.016,8.827-1.257,17.635-0.256,20.418
			c-0.019,0.002-2.292,0.267-2.312,0.269c-1.156,0.135-2.312,0.269-2.312,0.269c-2.938,0.058-3.485-0.445-6.441-0.535
			c-2.238-0.069-4.717-0.16-7.037,1.129c-0.539,0.299-3.063,1.703-3.644,4.132c-0.575,2.402,1.216,3.868,0.198,4.921
			c-0.796,0.824-2.126,0.17-4.352,0.679c-2.149,0.491-4.36,1.935-5.539,3.903c-1.376,2.297-0.996,4.721-0.473,8.065
			c0.224,1.43,0.598,3.697,1.945,6.266c1.918,3.658,4.624,5.665,6.05,6.698c5.927,4.295,15.773,6.883,23.983,3.457
			c3.434-1.433,2.296-2.13,10.538-7.011c0,0,7.428-4.294,12.8-3.752c3.217,0.324,2.91,1.856,6.022,2.089
			c5.783,0.433,8.427-4.455,12.511-3.423c2.63,0.665,1.882,2.821,5.391,4.684c3.884,2.062,8.505,1.387,11.579,0.939
			c4.325-0.631,7.288-2.14,7.926-2.473c3.378-1.766,3.651-3.051,5.574-3.827c4.536-1.831,10.195,3.087,14.245,4.158
			c19.369,5.124,46.809,2.85,54.716-4.921c0.953-0.937,1.191-1.93,2.588-2.8c6.148-3.832,14.907,3.387,21.441,0.012
			c3.291-1.7,4.704-5.407,4.727-8.169c0.005-0.633,0.105-3.961-2.681-6.403C466.374,274.579,461.298,274.708,457.404,274.807z"/>
		<path style="fill:#FFFFFF;" d="M339.197,302.448c-11.003,3.933-21.558,8.903-37.744,8.807c-18.637-0.111-25.87-6.904-28.288-9.591
			c-1.487-1.653-5.857-6.508-5.219-12.824c0.123-1.221,0.938-7.489,5.965-9.544c2.901-1.186,5.712-0.357,6.775,0.018
			c-0.3-0.917-1.392-4.618,0.532-8.07c2.431-4.363,8.13-5.55,12.228-4.473c2.282,0.6,3.876,1.851,4.764,2.681
			c-0.877-1.548-1.985-3.881-2.645-6.877c-1.462-6.634,0.265-12.019,0.952-14.071c3.203-9.568,11.022-14.605,13.928-16.478
			c16.661-10.734,35.44-4.414,36.534-4.026c3.917,1.389,16.214,5.75,21.622,18.192c2.686,6.18,2.624,11.94,2.321,15.219
			c0.328-1.604,1.102-4.204,3.133-6.623c3.775-4.497,9.201-5.16,11.695-5.465c7.283-0.891,12.94,2.097,15.657,3.579
			c7.445,4.059,11.28,10.169,12.893,13.189c0.875-0.924,7.272-7.456,16.853-6.698c5.9,0.467,12.931,3.693,16.007,10.132
			c1.217,2.546,1.508,4.951,1.557,6.581c1.084-1.037,4.352-3.881,9.227-4.181c5.346-0.329,10.872,2.508,13.26,7.12
			c0.416,0.803,1.296,2.554,1.234,4.899c-0.128,4.823-4.151,8.661-7.71,10.14c-5.217,2.167-10.763-0.187-12.206-0.753
			C435.873,286.8,380.331,287.745,339.197,302.448z M420.61,302.109c0,0,15.972-0.364,22.992-7.266
			c0.354-0.348,0.613-0.712,0.864-1.063c0.42-0.589,0.855-1.198,1.741-1.751c3.17-1.975,7.083-1.038,10.867-0.131
			c3.644,0.873,7.412,1.776,10.582,0.139c3.198-1.651,4.652-5.255,4.676-8.093c-0.213-0.906-0.64-2.19-1.567-3.481
			c-3.901-5.433-12.124-4.653-12.971-4.56c-4.845,0.53-8.171,3.15-9.617,4.463c-0.48-1.804-1.798-5.774-5.43-9.29
			c-1.2-1.161-4.663-4.541-9.921-5.202c-6.01-0.756-10.926,2.29-15.872,5.396c-1.688,1.06-3.023,2.068-3.952,2.816
			c-0.492-2.143-2.508-9.707-9.507-14.044c-9.661-5.987-22.88,1.314-27.807,3.927c-2.942,1.561-5.18,3.163-6.605,4.267
			c0.04-1.538,0.076-9.097-5.713-14.941c-1.43-1.443-4.869-4.915-9.668-5.273c-9.966-0.744-12.633,12.92-25.049,14.502
			c-6.772,0.863-9.918-2.7-15.381,0c-4.142,2.048-6.388,6.101-7.659,9.362c-1.615-0.57-6.884-2.197-12.093,0.257
			c-1.497,0.705-4.198,1.977-5.402,4.969c-0.819,2.035-0.571,3.939-0.367,4.914c-1.063,0.454-6.425,2.873-8.708,8.913
			c-0.298,0.789-1.954,5.172-0.432,9.291c2.738,7.408,14.02,9.253,17.267,9.784c15.137,2.476,21.331-5.084,53.816-9.064
			c0,0,0.728-0.112,1.705-0.202C355.788,300.343,363.583,300.652,420.61,302.109z"/>
		<path style="fill:#CEEAF0;" d="M459.45,290.827c-1.471,0.074-6.897,0.172-11.487-3.294c-1.628-1.229-2.813-2.652-3.589-3.582
			c-2.495-2.993-2.382-4.138-4.182-6.216c-2.75-3.174-6.287-4.281-7.175-4.547c-3.974-1.19-7.335-0.345-9.358,0.184
			c-5.341,1.398-8.808,4.583-10.441,6.332c-2.401-2.148-10.125-8.505-21.922-9.351c-9.678-0.694-16.972,2.687-19.973,4.295
			c-1.656-1.462-4.237-3.251-7.506-3.433c-4.868-0.272-8.104,3.41-11.778,5.85c-4.013,2.665-10.681,5.325-21.976,4.208
			c-0.941,1.261-6.708,8.725-17.204,9.878c-11.17,1.227-18.734-5.679-19.8-6.687c-1.391,0.24-3.591,0.795-5.91,2.222
			c-1.375,0.846-3.643,2.207-4.724,4.53c-2.022,4.343,0.736,9.146,1.418,10.336c4.312,7.514,14.393,9.172,17.61,9.702
			c14.426,2.373,27.717-3.522,40.008-4.026c1.914-0.078,4.454-0.183,7.8,0.252c3.241,0.421,4.392,0.977,7.637,1.419
			c0,0,3.391,0.462,7.996,0.309c8.768-0.292,24.498-4.732,26.388-5.251c24.199-6.645,50.92,5.71,56.073-1.812
			c0.324-0.473,1.009-1.803,2.588-2.8c3.284-2.075,5.668-0.622,10.618-1.69c1.379-0.298,6.238-1.414,9.403-5.411
			c0.56-0.707,2.087-2.751,2.544-5.836c0.266-1.801,0.069-3.311-0.135-4.281c-0.298,1.132-0.901,2.797-2.218,4.376
			C466.862,290.452,461.739,290.711,459.45,290.827z"/>
	</g>
	<g>
		<path style="fill:#CEEAF0;" d="M432.929,304.729c0.601,0.421,1.472-0.619,3.186-1.001c1.921-0.428,3.756-0.193,4.649-0.078
			c0.781,0.1,2.681,0.344,4.162,1.205c2.161,1.257,2.674,3.375,1.464,4.932c-1.641,2.112-6.049,2.956-9.15,3.019
			c-5.632,0.116-6.72-2.344-12.445-2.415c-4.676-0.058-4.887,1.44-11.53,2.114c-2.125,0.216-10.087,1.023-14.887-1.575
			c-0.78-0.422-3.75-2.166-2.85-3.921c0.621-1.212,2.936-2.135,5.038-2.34c1.79-0.175,3.143,0.444,3.418-0.078
			c0.209-0.398-0.498-0.843-0.907-2.021c-0.536-1.544-0.09-2.995,0.073-3.529c0.614-2.002,2.047-3.09,2.5-3.424
			c2.616-1.929,6.281-1.718,8.736-0.505c2.75,1.359,4.279,3.855,4.279,3.855c0.773,1.262,0.903,2.156,1.783,2.461
			c1.085,0.377,1.433-0.793,3.886-1.218c2.129-0.368,4.078,0.131,4.404,0.217c0.064,0.017,0.114,0.031,0.148,0.041
			c0.398,0.112,2.812,0.806,3.595,2.577C432.892,303.974,432.516,304.44,432.929,304.729z"/>
		<path style="fill:#FFFFFF;" d="M369.118,308c-0.882-0.251-2.164-0.643-3.746-1.208c-0.782-0.279-1.399-0.519-1.928-0.725
			c-1.33-0.517-2.132-0.829-3.654-1.031c-1.887-0.25-2.992-0.078-4.521,0.161c-0.995,0.155-2.233,0.348-3.987,0.465
			c-7.142,0.473-14.45,0.966-17.039-2.75c-1.543-2.214-1.164-5.57,0.111-7.79c2.17-3.778,7.678-5.554,13.216-3.537
			c0.346-1.569,1.057-3.669,2.613-5.677c3.58-4.622,10.421-7.192,16.002-5.12c2.086,0.775,3.51,2.017,4.281,2.792
			c1.378-2.076,4.523-6.165,10.042-8.555c7.202-3.119,13.845-1.353,17.508-0.38c7.568,2.011,12.588,6.273,15.078,8.749
			c0.251-0.23,4.911-4.359,10.983-2.606c4.003,1.156,7.078,4.423,8.017,8.512c1.994-0.796,4.59-1.476,7.619-1.438
			c1.922,0.024,6.095,0.134,9.866,2.978c1.622,1.223,3.979,3.001,4.07,5.531c0.139,3.857-5.046,6.987-7.925,7.877
			c-3.054,0.944-6.43,1.08-7.391,1.099c-1.872,0.037-2.916-0.124-3.836-0.267c-0.953-0.148-1.776-0.275-3.305-0.164
			c-1.805,0.131-2.888,0.479-3.935,0.815c-1.166,0.375-2.371,0.762-4.54,0.842c-2.003,0.074-3.556-0.155-4.804-0.34
			c-2.586-0.382-3.939-0.885-5.026-1.29c-1.054-0.392-1.815-0.675-3.207-0.683c-1.695-0.011-2.667,0.408-3.695,0.85
			c-1.079,0.464-2.197,0.943-4.193,0.898c-1.201-0.028-1.921-0.229-2.684-0.441c-0.838-0.233-1.704-0.475-3.349-0.558
			c-2.464-0.125-4.384,0.231-5.416,0.422c-1.967,0.364-2.929,0.809-4.042,1.325c-1.02,0.472-2.175,1.008-4.299,1.587
			c-0.999,0.273-1.906,0.52-2.863,0.701c-0.43,0.082-1.712,0.283-3.137,0.296C373.904,309.359,372.309,308.906,369.118,308z"/>
		<path style="fill:#F2F7F8;" d="M412.35,287.117c-1.507-1.33-3.737-3.072-6.701-4.654c-1.37-0.731-6.205-3.31-11.356-3.73
			c-9.82-0.801-17.492,6.515-19.092,8.105c-4.971-3.794-10.872-3.963-13.855-1.211c-1.527,1.409-3.422,4.627-2.477,6.81
			c0.523,1.207,2.209,2.781,1.693,3.613c-1.181-0.814-3.752-2.406-7.221-2.419c-0.676-0.002-6.454-0.023-7.753,3.359
			c-0.631,1.643-0.055,3.698,1.051,5.017c3.094,3.689,10.784,2.153,11.23,2.059c0,0,3.078-0.65,5.959-0.662
			c0.85-0.004,1.68,0.107,1.68,0.107c2.519,0.334,2.788,1.01,8.095,2.569c3.962,1.164,5.035,1.207,5.864,1.152
			c1.949-0.127,3.032-0.776,4.385-0.423c1.006,0.262,0.904,0.75,2.058,1.393c1.556,0.867,3.594,1.011,4.058,1.043
			c3.862,0.273,7.014-1.564,7.433-1.816c2.293-1.376,2.156-2.639,4.416-3.08c1.116-0.218,2.112-0.098,2.738-0.022
			c2.94,0.354,3.545,1.642,6.937,2.792c1.423,0.483,2.786,0.754,3.577,0.869c6.708,0.969,10.51-3.859,19.186-3.909
			c4.399-0.025,4.591,1.209,8.506,0.849c4.609-0.424,9.77-2.651,11.114-6.061c1.015-2.576-0.302-5.439-3.678-7.28
			c-2.677-1.46-5.035-1.952-8.75-2.04c-2.744-0.066-6.831,0.146-11.707,1.589c-0.628-1.198-1.99-3.342-4.547-4.765
			C419.256,283.069,412.707,286.901,412.35,287.117z"/>
		<path style="fill:#FFFFFF;" d="M401.249,295.415c0.601,0.421,1.472-0.62,3.186-1.001c1.921-0.428,3.756-0.193,4.649-0.078
			c0.781,0.1,2.681,0.344,4.162,1.205c2.161,1.257,2.674,3.375,1.464,4.932c-1.641,2.112-6.049,2.956-9.15,3.019
			c-5.632,0.116-6.72-2.344-12.445-2.415c-4.676-0.058-4.887,1.44-11.53,2.114c-2.125,0.216-10.087,1.023-14.887-1.575
			c-0.78-0.422-3.75-2.166-2.851-3.921c0.621-1.212,2.936-2.135,5.038-2.34c1.79-0.175,3.143,0.444,3.418-0.078
			c0.209-0.398-0.498-0.842-0.907-2.021c-0.536-1.544-0.09-2.996,0.074-3.529c0.614-2.002,2.047-3.09,2.5-3.424
			c2.616-1.929,6.281-1.718,8.736-0.505c2.75,1.359,4.279,3.855,4.279,3.855c0.773,1.262,0.903,2.156,1.783,2.461
			c1.085,0.377,1.433-0.793,3.886-1.218c2.129-0.369,4.078,0.131,4.404,0.217c0.064,0.017,0.114,0.031,0.148,0.041
			c0.398,0.112,2.812,0.805,3.595,2.577C401.212,294.659,400.836,295.126,401.249,295.415z"/>
		<path style="fill:#CEEAF0;" d="M393.239,302.706c-0.524-0.172-1.197-0.485-2.313-0.428c-3.37,0.171-7.159,1.064-9.85,1.37
			c-3.402,0.387-6.084-0.047-6.087-0.197c-0.004-0.177,3.716,0.339,8.229-1.173c2.922-0.98,3.301-1.846,6.424-2.57
			c1.696-0.393,3.499-0.792,5.653-0.343c2.932,0.611,2.954,2.051,5.121,2.336c3.31,0.436,4.101-2.812,8.327-3.278
			c3.42-0.377,4.058,1.622,7.378,1.07c3.077-0.512,3.14-2.272,6.585-3.738c3.484-1.482,8.519-1.668,11.733,0.727
			c2.772,2.065,1.815,4.28,4.292,6.034c4.751,3.363,12.735-2.001,13.198-1.059c0.484,0.985-7.82,7.587-13.197,6.269
			c-1.493-0.366-2.844-1.364-5.16-1.168c-0.862,0.073-2.286,0.347-3.31-0.487c-0.425-0.346-0.452-0.614-0.795-0.761
			c-1.087-0.466-2.733,1.403-3.75,2.279c-4.191,3.611-12.859,3.427-15.804,0.137c-0.582-0.65-0.989-1.477-1.947-1.655
			c-1.542-0.288-2.184,1.535-4.187,1.947c-2.115,0.435-4.209-1.021-6.003-2.267C395.896,304.444,395.309,303.386,393.239,302.706z"
			/>
	</g>
</g>
<g>
	<g>
		<g>
			<path style="fill:#E9F4F6;" d="M240.029,459.627c-4.239,5.564-12.663,7.563-20.579,4.473c-0.915,1.703-2.387,4.123-4.615,6.661
				c-12.814,14.599-36.441,16.908-53.962,11.635c-4.419-1.33-10.928-3.888-17.967-9.148c-2.522,1.298-5.811,2.688-9.794,3.658
				c-6.146,1.496-11.472,1.39-15.118,1.011c-8.399,3.263-15.893,4.919-21.854,5.796c-6.428,0.945-34.985,4.501-58.214-11.21
				c-7.88-5.33-10.08-9.449-10.841-12.926c-1.602-7.313,2.293-15.74,5.988-18.139c1.271-0.825,4.161-2.608,7.273-6.011
				c0.491-0.537,0.955-1.183,1.447-2.071c4.553-8.214-4.138-14.698-1.971-24.86c2.553-11.973,19.319-24.102,31.959-21.817
				c6.354,1.149,8.261,5.331,14.197,4.489c7.534-1.069,8.156-8.331,15.102-9.489c8.224-1.371,18.542,6.941,20.035,15.135
				c0.789,4.329-0.795,9.143-0.158,9.28c0.483,0.103,0.778-2.685,2.921-4.702c2.794-2.629,7.863-3.12,11.857-1.328
				c3.882,1.742,7.028,5.767,6.904,9.747c-0.145,4.654-4.718,7.868-4.322,8.266c0.411,0.414,4.386-3.9,9.947-6.738
				c7.914-4.039,16.445-1.64,17.647-1.284c9.692,2.873,15.405,11.52,16.043,12.514c2.069,3.222,2.282,5.019,4.409,5.833
				c3.58,1.37,6.103-2.531,14.007-4.36c3.325-0.769,7.076-1.638,11.162-0.058c5.823,2.251,8.305,7.747,8.511,8.223
				c1.873,4.319,0.305,6.671,2.198,8.006c2.529,1.782,5.792-2.169,12.053-1.092c1.225,0.211,4.082,0.631,6.143,2.637
				C244.512,445.726,244.017,454.392,240.029,459.627z"/>
			<path style="fill:#CEEAF0;" d="M209.527,446.903c-4.023-2.151-10.971-5.865-19.271-7.077
				c-13.886-2.028-17.537,4.995-28.922,2.394c-9.758-2.229-10.356-8.138-19.615-11.785c-6.839-2.694-17.626-3.849-34.454,4.043
				c-2.058-2.128-5.998-5.582-11.884-7.328c-10.107-2.998-23.056-0.1-28.256,7.783c-5.378,8.154,0.857,16.603-5.614,22.72
				c-4.056,3.834-10.131,3.941-11.29,3.961c-8.485,0.149-13.304-5.739-15.648-3.961c-1.973,1.497-0.965,7.498,1.617,12.047
				c9.582,16.877,42.479,16.63,59.95,14.015c9.613-1.439,17.188-3.989,21.854-5.796c3.645,0.378,8.972,0.485,15.118-1.011
				c3.983-0.97,7.272-2.359,9.794-3.658c7.039,5.26,13.548,7.818,17.967,9.148c17.521,5.273,41.148,2.964,53.962-11.635
				c2.228-2.538,3.7-4.959,4.615-6.661c2.535,0.96,6.395,1.926,10.867,1.156c2.121-0.365,8.615-1.484,9.712-5.629
				c0.58-2.193-0.389-5.082-2.236-5.936c-2.095-0.97-4.055,1.263-6.932,2.179C224.66,457.843,219.246,452.098,209.527,446.903z"/>
			<path style="fill:#FFFFFF;" d="M243.77,442.585c-0.552-0.756-2.823-3.699-6.958-4.983c-3.696-1.148-6.833-0.335-9.033,0.236
				c-2.417,0.627-4.275,1.571-5.476,2.284c0.282-2.077,0.815-8.143-3.01-13.169c-6.576-8.64-19.652-5.817-20.933-5.52
				c-6.113,1.417-10.126,4.988-11.959,6.866c-0.481-1.845-3.702-13.424-15.093-19.038c-2.737-1.349-10.062-4.382-18.735-2.155
				c-3.864,0.992-6.74,2.706-8.51,3.956c0.139-6.075-3.479-11.425-8.73-13.2c-6.146-2.077-11.475,1.775-11.961,2.139
				c0.037-0.643,0.595-14.534-10.783-22.115c-9.609-6.403-19.989-3.146-20.985-2.815c-7.322,2.436-11.251,7.721-12.501,9.566
				c-1.459-0.573-17.026-6.381-31.156,3.038c-11.043,7.362-16.225,20.706-14.424,32.333c0.813,5.244,2.909,9.233,4.439,11.648
				c-1.834,0.827-4.556,2.31-7.231,4.892c-1.351,1.304-4.479,4.38-6.149,9.419c-0.672,2.027-2.789,8.362,0.368,14.828
				c3.115,6.38,9.646,9.376,10.025,8.96c0.17-0.187-0.882-1.105-2.046-2.871c-0.637-0.965-3.599-5.66-3.286-11.804
				c0.382-7.477,5.367-12.263,6.746-13.492c4.056-3.617,8.486-4.626,10.447-4.951c-0.573-2.871-1.946-11.701,2.795-21.034
				c0.615-1.21,6.705-12.737,19.957-16.317c5.745-1.552,10.755-1.048,13.33-0.615c8.3,1.396,11.231,5.884,21.182,8.438
				c4.036,1.036,7.452,1.318,9.588,1.403c1.264,2.306,3.352,5.569,6.653,8.841c2.128,2.11,3.656,3.646,5.996,4.497
				c6.036,2.195,11.458-1.017,12.243-1.499c2.352-1.583,9.143-5.702,18.614-5.384c4.28,0.143,12.18,1.295,19.114,7.383
				c6.004,5.271,8.215,11.547,8.995,14.242c1.1-1.151,7.672-7.81,17.272-7.247c1.932,0.113,7.053,0.49,11.458,4.493
				c5.745,5.221,5.767,12.514,5.75,13.747c0.943-1.182,3.259-3.738,7.055-4.761c4.635-1.249,11.059-0.016,14.154,4.943
				c2.192,3.512,1.824,9.059-1.029,11.774c-0.237,0.226-0.497,0.433-0.781,0.625c0.301-0.112,0.604-0.27,0.908-0.447
				c1.319-0.765,5.12-2.968,6.177-7.386C247.409,447.566,244.542,443.642,243.77,442.585z"/>
		</g>
	</g>
	<path style="fill:#E9F4F6;" d="M86.039,467.603c7.87-0.264,15.183-5.655,18.865-13.788c6.587,5.171,11.256,5.556,14.256,5.009
		c7.534-1.373,8.111-9.27,17.946-12.553c7.427-2.479,14.805-0.933,14.805-0.933c5.53,1.159,8.894,3.773,12.64,2.18
		c2.386-1.015,3.728-3.226,4.464-4.814c-1.545-0.199-2.672-0.634-3.371-0.961c-3.21-1.502-5.509-4.331-6.987-6.696
		c-2.854-2.697-8.048-6.818-15.625-9.048c-12.482-3.673-23.003,0.268-26.288,1.668c-3.829,1.631-6.718,3.598-8.63,5.083
		c0.035-1.289-0.003-3.1-0.339-5.227c-0.207-1.309-1.249-7.893-5.239-12.6c-5.361-6.327-15.401-8.506-23.621-5.913
		c-9.258,2.921-13.329,10.9-14.666,13.522c-5.264,10.317-4.178,23.14,2.162,32.475C68.748,458.449,75.213,467.966,86.039,467.603z"
		/>
	<path style="fill:#FFFFFF;" d="M73.981,463.563c0.034-0.035,0.068-0.069,0.102-0.103c-5.937-5.419-10.412-14.074-8.659-19.477
		c0.252-0.777,1.06-3.268,3.231-4.303c2.267-1.08,3.816,0.478,6.318,0.486c6.3,0.021,7.547-9.822,15.309-11.421
		c4.102-0.845,7.578,1.116,8.447,1.606c5.349,3.018,6.664,8.774,6.886,9.827c2.14-2.006,5.79-4.934,11.015-6.982
		c8.595-3.369,16.393-2.331,20.27-1.54c7.111,1.451,12.988,5.119,15.497,6.851c5.565,3.842,8.784,7.918,12.724,7.014
		c1.819-0.417,3.092-1.738,3.896-2.818c-1.545-0.199-2.672-0.634-3.371-0.961c-3.21-1.502-5.509-4.331-6.987-6.696
		c-4.987-7.776-16.389-10.6-17.648-10.912c-8.728-2.161-16.346,0.551-20.84,2.15c-5.375,1.913-9.414,4.496-12.055,6.465
		c0.035-1.289-0.003-3.1-0.339-5.227c-0.207-1.309-1.255-7.888-5.239-12.6c-5.169-6.113-15.102-8.6-23.621-5.913
		c-9.258,2.921-13.329,10.9-14.666,13.522c-8,15.681,1.743,31.796,2.162,32.475C67.661,457.033,70.069,460.337,73.981,463.563z"/>
	<path style="fill:#FFFFFF;" d="M175.781,462.762c-0.039-0.55-0.101-2.379,1.142-3.979c1.534-1.975,3.91-2.127,4.75-2.181
		c2.702-0.173,4.649,1.205,5.221,1.643c-0.024-0.717-0.051-3.821,2.277-6.463c2.105-2.389,4.782-2.862,5.759-3.02
		c0.668-0.108,5.692-0.842,8.422,2.437c1.555,1.868,1.774,4.329,1.822,4.868c0.085,0.954,0.01,1.756-0.076,2.316
		c0.19-0.292,1.77-2.627,4.694-2.852c2.809-0.217,4.646,1.685,5.088,2.142c2.629,2.721,1.949,6.511,1.869,6.918
		c1.96-0.595,4.072,0.012,5.339,1.525c1.433,1.712,1.521,4.269,0.164,6.176c-0.387,0.339-0.975,0.828-1.728,1.362
		c-0.411,0.292-4.725,3.285-10.161,3.969c-8.05,1.013-10.371-4.071-18.732-2.457c-2.19,0.423-1.59,0.686-4.146,1.228
		c-1.617,0.343-11.263,2.389-17.755-3.025c-1.367-1.14-3.973-3.365-3.709-6.421c0.19-2.196,1.842-4.55,4.405-5.26
		C173.224,460.916,175.495,462.549,175.781,462.762z"/>
	<path style="fill:#E9F4F6;" d="M191.848,467.314c-4.366,1.05-7.233,3.672-8.585,5.115c-0.209-0.382-2.273-4.017-6.143-4.312
		c-2.491-0.19-5.721,1.005-6.104,3.01c-0.391,2.049,2.353,4.091,2.936,4.525c4.183,3.113,7.917,1.366,18.195,1.874
		c6.127,0.303,7.621,1.064,12.618,0.54c7.221-0.756,8.95-2.852,9.577-4.059c0.113-0.217,0.797-1.582,0.492-3.247
		c-0.575-3.138-4.126-4.39-4.509-4.519c-0.477-0.16-3.922-1.316-6.097,0.778c-1.058,1.018-1.327,2.335-1.409,2.967
		c-0.652-0.722-1.76-1.755-3.392-2.463C196.409,466.217,193.602,466.892,191.848,467.314z"/>
</g>
<g>
	<g>
		<path style="fill:#E9F4F6;" d="M290.9,230.612c-5.77,4.976-13.855,3.793-15.852,3.446c-3.136,4.824-6.525,7.61-8.801,9.173
			c-13.676,9.392-31.396,5.011-38.781,3.185c-4.081-1.009-7.329-2.21-9.42-3.061c-1.589,0.988-6.746,3.912-13.567,3.038
			c-4.447-0.57-7.634-2.503-9.243-3.65c-10.123,5.113-18.961,6.458-24.32,6.846c-8.853,0.641-19.783,1.49-26.715-5.721
			c-0.809-0.841-5.968-6.382-5.215-14.044c0.143-1.453,0.959-7.664,6.126-11.12c3.484-2.33,7.339-2.331,8.249-2.332
			c1.233-0.001,2.999-0.003,5.086,0.763c1.775,0.651,3.041,1.585,3.311,1.275c0.26-0.299-0.877-1.204-1.315-3.023
			c-0.128-0.532-0.53-2.145,0.233-3.451c1.252-2.142,4.524-2.078,4.925-2.067c2.743,0.079,4.393,1.786,4.964,1.197
			c0.436-0.45-0.556-1.414-0.526-3.298c0.005-0.3,0.065-2.282,1.457-3.695c1.39-1.41,3.528-1.733,5.145-1.382
			c2.189,0.475,2.89,2.068,3.807,1.695c0.965-0.393,0.453-2.267,1.244-4.879c0.236-0.781,1.314-4.503,4.381-5.918
			c3.521-1.625,7.093,0.268,7.607,0.55c3.557,1.956,4.462,5.687,6.086,5.327c0.988-0.219,0.811-1.567,2.302-2.404
			c1.525-0.857,3.597-0.495,4.96,0.246c2.913,1.584,2.771,4.998,4.031,5.059c1.58,0.077,1.745-5.297,5.108-9.735
			c4.757-6.278,13.049-6.906,13.677-6.944c0.537-0.033,8.929-0.421,14.66,5.505c2.948,3.048,4.319,6.862,4.655,7.857
			c1.635,4.837,0.774,7.779,2.404,8.508c1.84,0.823,3.481-2.745,8.789-4.356c1.404-0.426,4.882-1.481,8.598-0.045
			c4.485,1.734,6.398,5.968,6.556,6.334c1.443,3.327,0.234,5.139,1.693,6.167c1.948,1.373,4.462-1.67,9.284-0.841
			c0.85,0.146,2.848,0.514,4.732,2.031c0.336,0.271,3.901,3.236,3.546,7.474C294.492,227.514,292.157,229.528,290.9,230.612z"/>
		<path style="fill:#FFFFFF;" d="M291.267,216.782c-0.591-0.492-2.375-1.637-4.77-2.049c-2.543-0.438-4.438,0.19-5.961,0.694
			c-1.389,0.459-2.393,0.792-3.288,0.161c-0.717-0.506-0.759-1.198-0.822-2.245c-0.061-1.006-0.136-2.257-0.842-3.886
			c-0.204-0.471-2.123-4.647-6.603-6.379c-3.743-1.447-7.184-0.403-8.653,0.043c-2.726,0.827-4.506,2.18-5.806,3.168
			c-1.246,0.947-2.07,1.573-2.924,1.191c-0.858-0.383-0.992-1.412-1.213-3.116c-0.184-1.412-0.412-3.17-1.146-5.342
			c-0.477-1.412-1.887-5.007-4.674-7.889c-5.804-6.002-14.364-5.553-14.725-5.531c-7.144,0.431-11.638,4.901-13.739,6.978
			c-2.298,2.272-3.742,4.57-4.61,6.194c-0.432-0.553-1.999-2.419-4.71-2.928c-0.614-0.115-2.322-0.411-4.223,0.433
			c-1.452,0.645-2.315,1.644-2.707,2.166c-0.29-0.938-1.266-3.658-4.002-5.415c-3.748-2.406-7.856-1.114-8.992-0.757
			c-3.233,1.017-5.184,3.168-6.064,4.331c-1.32,1.745-1.897,3.472-2.166,4.548c-0.673-0.204-1.783-0.451-3.14-0.325
			c-0.8,0.074-3.081,0.285-4.764,2.166c-1.374,1.535-1.582,3.323-1.624,4.006c-2.343-0.138-5.63-0.119-9.455,0.617
			c-2.628,0.506-6.156,1.172-9.494,3.173c-7.452,4.468-10.138,13.233-9.747,13.482c0.23,0.146,1.309-2.82,4.641-4.535
			c2.705-1.392,6.583-1.799,9.513-0.641c0.551,0.218,2.86,1.199,4.533,1.921c1.132,0.488,1.348,0.596,1.782,0.72
			c0.829,0.238,2.704,0.751,4.795,0.228c4.146-1.037,5.956-5.355,6.22-6.012c1.159-0.175,5.128-0.922,8.074-4.428
			c1.647-1.959,2.314-3.996,2.605-5.209c0.786,0.699,2.155,1.738,4.106,2.407c0.906,0.31,3.662,1.214,6.644,0.307
			c4.916-1.495,6.63-6.749,6.794-7.281c0.377-0.359,2.109-1.932,4.722-1.894c0.601,0.009,2.464,0.121,4.003,1.447
			c2.046,1.763,1.805,4.192,2.684,4.251c0.828,0.055,1.466-2.071,2.796-5.145c1.195-2.763,2.552-5.375,3.244-6.488
			c3.56-5.724,11.402-6.95,12.08-7.047c0.792-0.113,9.109-1.17,14.805,4.38c0.983,0.958,3.333,3.971,4.636,7.826
			c0.729,2.156,0.956,3.905,1.138,5.31c0.221,1.702,0.367,2.826,1.311,3.248c0.946,0.423,1.847-0.263,3.095-1.211
			c1.29-0.98,3.056-2.323,5.753-3.141c1.453-0.441,4.854-1.473,8.544-0.047c4.416,1.707,6.308,5.825,6.509,6.289
			c0.694,1.601,0.769,2.837,0.828,3.829c0.064,1.057,0.11,1.821,0.893,2.373c0.964,0.68,2.056,0.318,3.438-0.139
			c1.505-0.498,3.379-1.118,5.88-0.688c0.763,0.131,2.789,0.48,4.693,2.014c3.377,2.721,3.487,7.409,3.515,7.401
			C294.704,224.306,294.698,219.641,291.267,216.782z"/>
		<path style="fill:#CEEAF0;" d="M293.3,219.731c-2.212-1.332-5.337,3.026-10.33,4.767c-7.311,2.548-15.026,3.609-22.967,3.253
			c-6.351-0.285-13.161-0.866-19.225-2.873c-6.091-2.016-11.265-5.807-17.958-5.436c-12.869,0.712-22.993,10.422-35.263,13.229
			c-9.296,2.126-18.727-0.686-26.011-6.497c-1.018,0.721-2.582,1.691-4.645,2.462c-2.499,0.935-6.332,2.368-10.256,0.827
			c-3.771-1.482-5.555-4.897-6.128-6.145c-0.725,1.698-1.803,4.863-1.511,8.844c0,0,0.487,6.653,5.195,11.707
			c6.755,7.253,18.007,6.352,26.715,5.721c5.359-0.388,14.197-1.733,24.32-6.846c1.609,1.147,4.796,3.079,9.243,3.65
			c6.821,0.875,11.978-2.05,13.567-3.038c2.091,0.85,5.339,2.051,9.42,3.061c7.384,1.826,25.104,6.207,38.781-3.185
			c2.276-1.563,5.665-4.348,8.801-9.173c1.996,0.347,10.081,1.53,15.852-3.446c1.211-1.045,3.619-3.087,3.86-6.292
			C294.788,223.953,294.993,220.751,293.3,219.731z"/>
	</g>
	<path style="fill:#FFFFFF;" d="M225.88,211.492c5.371-1.39,10.016-0.29,11.7,0.129c3.845,0.956,6.69,2.624,8.416,3.822
		c0.095-1.002,0.926-8.412,7.525-12.767c6.693-4.417,13.881-2.101,15.28-1.65c8.259,2.662,11.49,10.063,11.965,11.203
		c1.013-0.273,5.963-1.494,10.765,1.362c1.292,0.769,6.438,4.131,6.329,9.725c-0.124,6.288-6.773,9.482-7.225,9.691
		c-5.071,2.339-11.491,1.014-16.293-3.333c-3,3.853-6.008,6.19-8.041,7.549c-17.894,11.958-41.281,2.246-43.818,1.149
		c-1.879-0.813-3.361-1.587-4.277-2.088c-1.965,1.396-6.867,4.448-13.434,4.146c-2.504-0.115-10.378-0.478-13.013-6.18
		c-1.588-3.437-0.694-7.561,1.221-10.375c2.627-3.862,6.77-4.661,7.891-4.858c5.999-1.056,10.471,2.717,11.109,3.273
		C213.026,220.54,217.41,213.683,225.88,211.492z"/>
</g>
<g>
	<g>
		<path style="fill:#E9F4F6;" d="M60.106,150.858c-3.612,4.074-17.234-9.182-33.541-6.949c-1.932,0.265-11.15,1.527-12.888,7.262
			c-0.97,3.203,0.702,7.227,3.213,9.359c1.732,1.47,4.376,1.487,9.383,1.891c2.052,0.165,4.009,0.192,5.145,1.605
			c0.733,0.911,0.323,1.596,0.97,2.605c1.343,2.093,4.406,2.977,7.446,3.306c5.735,0.621,15.168,1.641,23.016-2.628
			c1.227-0.667,3.605-2.111,6.484-1.666c1.732,0.268,1.718,0.922,4.35,1.799c3.034,1.011,5.695,1.003,7.545,1.016
			c6.346,0.047,7.893-1.961,12.202-1.992c4.981-0.036,7.434,3.05,12.113,4.72c16.494,5.885,40.277,4.63,47.444-2.89
			c0.963-1.01,1.151-1.802,2.357-2.72c3.85-2.932,7.925-2.242,18.668-2.66c7.171-0.279,8.944-0.793,10.545-2.08
			c3.156-2.537,3.705-6.519,3.782-7.144c0.882-7.152-5.66-12.977-8.195-15.233c-4.855-4.322-10.264-6.606-19.612-8.95
			c-8.181-2.052-29.731-7.235-50.258-2.675c-5.578,1.239-9.939,2.256-14.466,5.635c-4.671,3.487-4.99,6.106-9.032,7.509
			c-5.717,1.984-7.58-2.491-14.158-0.808c-4.827,1.235-9.745,5.142-11.831,9.99C60.233,150.449,60.455,150.465,60.106,150.858z"/>
	</g>
	<path style="fill:#FFFFFF;" d="M224.611,156.94c-11.869,9.171-57.224,3.508-56.974,0.911c0.144-1.496,15.174,0.708,17.971-5.839
		c0.917-2.147,0.443-5.058-0.589-7.116c-1.382-2.757-3.755-3.968-5.504-4.86c-0.842-0.43-4.475-2.192-9.665-1.891
		c-5.538,0.321-7.298,2.639-9.586,1.369c-2.23-1.237-0.956-3.894-3.403-7.14c-3.864-5.126-11.469-5.058-12.007-5.046
		c-4.153,0.095-7.564,1.924-9.166,2.782c-0.877,0.47-2.195,1.532-4.67,3.012c-1.934,1.157-2.901,1.735-3.44,1.882
		c-3.067,0.835-5.434-1.741-9.186-3.554c0,0-5.153-2.491-11.491-2.108c-8.152,0.492-13.768,5.835-15.391,7.379
		c-3.466,3.298-5.35,6.79-6.325,8.961c-0.823-1.103-2.536-3.073-5.362-4.27c-4.901-2.077-9.49-0.273-10.678,0.179
		c-5.943,2.257-8.11,7.539-8.757,7.128c-0.707-0.449,1.277-7.056,6.469-12.208c5.497-5.455,11.97-6.68,13.534-6.939
		c5.929-0.981,10.678,0.442,12.86,1.251c0.563-1.547,4.756-12.562,15.162-15.754c4.646-1.425,8.862-0.78,9.477-0.679
		c5.212,0.853,8.706,3.507,10.19,4.785c0.312-0.289,2.865-2.578,6.495-2.004c3.251,0.514,4.941,2.94,5.217,3.352
		c1.105-2.064,3.036-5.087,6.242-7.926c2.186-1.936,7.276-6.313,15.031-6.825c8.432-0.556,14.504,3.821,16.399,5.333
		c8.75,6.98,9.35,17.402,9.418,19.055c0.842-0.981,2.856-3.057,6.164-4.125c1.804-0.583,5.423-1.318,9.247,0.355
		c4.741,2.074,6.599,6.717,6.752,7.118c1.395,3.645,0.011,5.536,1.531,6.71c2.03,1.568,4.876-1.587,10.022-0.469
		c0.907,0.197,3.038,0.686,4.992,2.406c0.348,0.307,4.043,3.663,3.462,8.202C228.611,153.845,225.75,156.06,224.611,156.94z"/>
	<g>
		<path style="fill:#CEEAF0;" d="M182.601,151.177c-6.875-2.337-6.211-4.119-11.655-5.701c-13.902-4.04-23.278,8.665-36.005,4.398
			c-4.028-1.351-6.776-3.86-8.268-5.442c-1.158,1.476-9.655,11.956-23.2,11.819c-6.38-0.064-11.253-2.457-13.825-3.996
			c-4.176,6.04-11.53,8.713-17.975,6.729c-7.719-2.376-10.191-10.218-10.383-10.865c-0.181,0.342-0.352,0.689-0.504,1.041
			c-0.555,1.289-0.332,1.304-0.681,1.697c-3.612,4.074-17.234-9.182-33.541-6.949c-1.932,0.265-11.151,1.527-12.888,7.262
			c-0.97,3.203,0.702,7.227,3.213,9.359c1.732,1.47,4.376,1.487,9.383,1.891c2.052,0.165,4.009,0.192,5.145,1.605
			c0.733,0.911,0.323,1.596,0.97,2.605c1.343,2.093,4.406,2.977,7.446,3.306c5.735,0.621,15.168,1.641,23.016-2.628
			c1.227-0.667,3.605-2.111,6.484-1.666c1.732,0.268,1.718,0.922,4.35,1.799c3.034,1.011,5.695,1.003,7.545,1.016
			c6.346,0.047,7.893-1.961,12.202-1.992c4.981-0.036,7.434,3.05,12.113,4.72c16.494,5.885,40.277,4.63,47.444-2.89
			c0.963-1.01,1.151-1.802,2.357-2.72c5.781-4.402,13.745-3.366,18.668-2.66c9.766,1.402,24.534,3.42,38.667,0.433
			c0,0,13.367-2.732,15.97-9.103c1.339-3.276,0.652-6.039,0.652-6.039c-0.26-1.046-0.68-1.848-0.994-2.361
			c-0.225,0.511-3.074,6.694-9.834,7.865c-5.168,0.895-9.07-1.755-9.853-2.312C202.184,153.133,192.642,154.59,182.601,151.177z"/>
	</g>
	<path style="fill:#FFFFFF;" d="M164.799,149.363c4.479-1.286,8.883,0.143,10.152,0.555c5.3,1.72,8.527,5.448,9.799,4.424
		c0.519-0.417,0.171-1.187,0.321-2.792c0,0,0.333-3.565,3.043-6.501c2.952-3.198,8.285-4.117,12.551-2.563
		c4.8,1.748,6.783,6.092,7.402,7.45c3.811,8.349-1.546,16.547-1.886,17.047c-0.602,0.886-2.853,4.026-7.267,6.249
		c-1.976,0.995-5.041,2.136-26.425,0.417c-6.23-0.501-9.344-0.751-11.658-1.08c-3.873-0.55-5.3-0.95-8.238-0.931
		c-4.669,0.031-5.234,1.071-8.753,1.045c-1.274-0.009-9.82-0.082-11.769-5.081c-1.278-3.279,0.72-7.562,3.58-9.668
		c2.113-1.556,4.402-1.708,6.234-1.806c5.671-0.303,6.711,2.418,10.437,2.08C157.819,157.711,157.925,151.337,164.799,149.363z"/>
	<path style="fill:#FFFFFF;" d="M72.889,155.238c-0.369,2.232-4.413,3.042-4.792,3.115c-2.877,0.552-4.374-0.535-8.447-1.537
		c-7.25-1.784-8.888-1.609-10.134-1.11c-1.62,0.649-1.548,1.279-3.45,1.909c-0.793,0.262-3.7,1.175-6.808-0.186
		c-0.91-0.398-3.688-1.615-4.317-4.362c-0.413-1.801,0.366-3.315,0.558-3.683c0.861-1.648,2.284-2.355,3.255-2.836
		c0.595-0.295,1.927-0.937,3.764-0.899c1.278,0.027,2.283,0.372,2.886,0.632c0.245-0.858,0.717-2.067,1.689-3.203
		c2.875-3.361,8.958-4.723,13.142-1.734c3.572,2.551,3.891,6.938,3.93,7.616c1.279,0.084,3.812,0.445,6.101,2.279
		C71.22,152.003,73.166,153.563,72.889,155.238z"/>
	<path style="fill:#E9F4F6;" d="M70.832,151.667c-3.955,1.661-8.656,1.496-11.857-1.461c-1.2,0.489-3.676,1.306-6.814,0.945
		c-2.409-0.277-4.225-1.135-5.279-1.738c-0.351,0.586-1.084,1.63-2.385,2.441c-0.378,0.236-2.689,1.625-5.599,0.878
		c-2.112-0.542-3.354-1.905-3.788-2.432c-0.194,0.599-0.423,1.611-0.167,2.767c0.602,2.723,3.384,3.953,4.317,4.362
		c3.108,1.361,6.015,0.449,6.808,0.186c1.903-0.629,1.83-1.26,3.45-1.909c1.246-0.499,2.885-0.674,10.134,1.11
		c4.072,1.002,5.57,2.089,8.447,1.537c0.379-0.073,4.422-0.883,4.792-3.115C73.131,153.777,71.691,152.367,70.832,151.667z"/>
	<path style="fill:#CEEAF0;" d="M208.621,151.399c-0.378,0.952-4.28,10.314-14.547,12.887c-8.831,2.213-15.779-2.249-16.902-2.997
		c-5.228,5.486-17.235,7.812-23.221,2.958c-0.755,0.461-6.313,3.727-12.693,1.427c-4.39-1.583-6.654-4.896-7.361-6.034
		c-0.559,0.393-1.587,1.237-2.164,2.658c-1.017,2.5,0.129,4.891,0.337,5.306c2.425,4.819,10.269,5.05,11.265,5.074
		c0.219,0.005,0.39,0.007,0.504,0.007c3.519,0.025,4.084-1.014,8.753-1.045c2.938-0.02,4.365,0.381,8.238,0.931
		c2.313,0.328,5.428,0.579,11.658,1.08c21.384,1.719,24.45,0.578,26.425-0.417c4.29-2.16,6.719-5.451,7.267-6.249
		c0.65-0.947,4.039-6.083,3.124-12.664C209.132,153.087,208.849,152.085,208.621,151.399z"/>
</g>
<g>
	<path style="fill:#E9F4F6;" d="M155.604,69.845c-2.211,2.702-5.384,3.452-6.522,3.652c-3.217,0.565-3.985-0.841-7.695-0.261
		c-2.444,0.382-4.285,1.333-6,2.217c-2.484,1.282-2.901,1.98-5.348,3.391c0,0-2.691,1.553-6.261,2.739
		c-6.384,2.121-15.86,1.202-23.766-2.675c-5.304-2.6-6.311-4.793-9.768-4.459c-3.421,0.331-4.588,2.688-9.629,3.071
		c-3.034,0.231-5.342-0.414-6.024-0.621c-1.187-0.359-1.406-0.624-2.163-0.898c-4.447-1.607-7.896,2.799-13.391,2.432
		c-2.075-0.138-2.689-0.841-5.206-1.787c-11.145-4.19-17.74,2.565-24.775-1.873c-3.265-2.06-6.046-5.977-5.555-9.567
		c0.671-4.902,7.33-8.717,12.64-8.381c4.081,0.258,5.354,2.84,8.243,1.971c2.85-0.858,3.199-3.849,6.344-8.006
		c2.791-3.688,6.37-6.426,8.912-7.704c10.044-5.047,19.921,4.657,25.68-0.302c2.873-2.474,0.787-5.208,4.64-9.783
		c4.583-5.441,11.274-6.011,11.644-6.037c0.459-0.032,7.632-0.425,12.575,4.601c2.267,2.304,3.297,4.82,4.037,6.684
		c2.356,5.931,0.661,8.229,2.432,9.812c3.381,3.023,9.986-4.973,20.086-3.391c7.939,1.244,12.896,7.6,13.57,8.491
		c2.347,3.099,2.956,5.755,3.087,6.365C157.684,60.896,158.77,65.977,155.604,69.845z"/>
	<path style="fill:#FFFFFF;" d="M114.57,44.302c2.645,3.161,4.098,6.3,4.904,8.467c5.149-2.758,9.692-3.998,12.715-4.608
		c5.348-1.079,10.287-2.076,15.514,0.218c4.271,1.875,6.799,5.099,8.032,6.959c-0.531-1.729-2.96-8.957-10.139-12.719
		c-4.483-2.349-8.901-2.36-10.387-2.322c-3.975,0.1-6.852,1.099-7.518,1.354c-2.494,0.957-4.332,2.229-5.508,3.179
		c-0.408-2.473-1.567-7.257-5.333-11.762c-1.466-1.754-5.502-6.614-12.55-7.804c-1.479-0.25-6.665-1.053-11.664,1.667
		c-4.184,2.276-6.537,5.57-7.44,6.936c-0.691,1.046-1.178,1.985-1.506,2.682c-2.105-1.286-8.694-4.934-17.418-3.855
		c-1.6,0.198-12.159,1.68-18.502,11.123c-3.067,4.566-3.886,9.112-4.144,11.623c-1.26-0.692-3.675-1.795-6.847-1.861
		c-0.949-0.02-6.441-0.134-10.122,3.847c-3.657,3.955-3.282,9.524-3.147,9.556c0.098,0.023,0.207-2.552,2.142-5.012
		c1.813-2.304,4.196-3.194,4.888-3.442c3.636-1.306,6.837-0.323,8.078,0.079c3.46,1.118,5.548,3.327,6.422,4.378
		c0.789-1.808,2.157-4.575,4.378-7.589c2.995-4.064,8.252-11.195,16.053-11.88c3.815-0.335,7.251,0.959,10.275,2.097
		c2.99,1.125,5.316,2.49,6.92,3.565c2.301-3.277,6.328-7.827,12.624-10.533c2.667-1.146,5.286-2.233,8.61-1.751
		C108.988,37.63,112.256,41.536,114.57,44.302z"/>
	<path style="fill:#CEEAF0;" d="M131.333,79.341c3.066-2.053,2.47-2.083,4.606-3.611c5.445-3.895,13.693,1.406,19.056-3.072
		c1.949-1.628,3.312-4.376,3.488-7.128c0.132-2.064-0.43-3.736-0.852-4.709c-0.145,1.033-0.653,3.639-2.787,5.923
		c-0.389,0.416-3.79,3.933-8.796,3.336c-3.206-0.382-5.286-2.238-6.011-2.953c-1.94,1.476-5.545,3.696-10.261,3.787
		c-3.443,0.067-6.029-1.063-8.971-2.262c-3.948-1.609-6.853-3.682-8.728-5.244c-0.768,0.839-5.19,5.508-12.284,5.611
		c-8.852,0.129-13.925-6.969-14.334-7.562c-1.152,3.774-4.525,5.791-7.201,5.135c-2.386-0.585-3.485-3.116-3.64-3.488
		c-2.556,6.053-8.253,9.851-14.104,9.554c-5.871-0.297-9.495-4.596-10.146-5.396c-1.465,2.247-4.12,3.312-6.516,2.676
		c-2.903-0.771-3.93-3.642-4.01-3.876c-0.181,0.351-2.6,5.324-7.99,5.99c-3.839,0.475-6.659-1.547-7.293-2.026
		c0.84,2.304,2.003,3.591,2.753,4.277c6.471,5.918,21.1,2.649,25.194,3.941c0.274,0.087,1.671,0.516,3.64,0.821
		c0.394,0.061,0.826,0.106,1.358,0.133c5.252,0.267,8.478-1.827,12.748-0.972c0.727,0.146,0.94,0.278,2.079,0.472
		c0.655,0.112,2.868,0.463,5.761,0.399c4.808-0.107,5.885-1.237,9.147-1.344c3.224-0.106,5.575,0.755,9.394,2.33
		c4.413,1.82,8.974,3.701,13.509,4.347C121.125,85.994,130.243,80.071,131.333,79.341z"/>
</g>
</svg>
